<svg width="62" height="62" viewBox="0 0 62 62" fill="none" xmlns="http://www.w3.org/2000/svg">
<circle cx="31" cy="31" r="31" fill="#333333"/>
<path d="M28.654 16.2456C23.9089 17.0924 19.6047 20.0559 17.1704 24.1483C16.4648 25.3478 16.4472 25.3655 15.5475 25.4713C13.9952 25.683 12.7251 26.6003 11.949 28.0468C11.4727 28.9287 11.3492 35.5437 11.7726 36.8314C12.3547 38.5425 14.0481 39.8655 15.7063 39.8655C16.3766 39.8655 16.4825 39.9361 16.747 40.43C17.3821 41.7177 18.1759 41.9999 18.8991 41.2238C19.4107 40.6769 19.393 40.5005 18.6698 38.9482C17.629 36.6727 17.2762 35.1204 17.2762 32.7213C17.2762 30.093 17.5938 28.7347 18.758 26.3533C19.446 24.9421 19.9222 24.2542 20.9806 23.1076C23.9618 19.95 27.2605 18.4859 31.4588 18.4859C35.6394 18.4859 38.9557 19.95 41.9016 23.0899C42.96 24.2012 43.4363 24.9068 44.1242 26.318C45.3237 28.77 45.6413 30.093 45.6236 32.7213C45.6236 35.3144 45.2355 36.9373 44.0184 39.3363C43.0835 41.2238 41.7958 42.6703 40.5962 43.2171C39.9612 43.517 39.432 43.5699 37.2094 43.5699C34.6692 43.5699 34.581 43.5523 34.0695 43.1289C33.5756 42.7055 33.4344 42.6879 31.4411 42.6879H29.342L28.7246 43.2524C27.8602 44.0638 27.7191 44.9635 28.3541 45.5985L28.8128 46.0571L34.6869 46.0042L40.5433 45.9513L41.5135 45.4927C43.3657 44.6107 44.8298 43.076 45.9411 40.8886C46.4527 39.8832 46.4703 39.8655 47.2112 39.8655C48.1991 39.8655 49.6455 39.1423 50.3335 38.3132C51.2684 37.1842 51.4272 36.2493 51.3566 32.2274C51.3037 28.3113 51.2331 28.0644 50.0865 26.8472C49.3633 26.0711 48.4813 25.6301 47.3523 25.4713C46.488 25.3655 46.4351 25.3126 45.9059 24.3953C43.7891 20.6909 40.1905 17.9038 35.9569 16.669C34.6692 16.2809 33.9107 16.1751 31.988 16.1398C30.6826 16.1045 29.1832 16.1398 28.654 16.2456Z" fill="url(#paint0_linear_276_95)"/>
<path d="M24.103 24.3424C22.7447 25.1538 20.9631 28.1173 20.4162 30.4282C20.0105 32.1569 20.1516 35.3321 20.6808 36.708C21.263 38.2603 21.704 38.6307 22.9035 38.6307C23.4503 38.6307 24.8262 38.4367 25.9552 38.2074C30.4534 37.2725 32.4643 37.2725 36.9625 38.2074C38.0915 38.4367 39.5027 38.6307 40.0671 38.6307C41.0373 38.6307 41.1785 38.5778 41.5842 38.1015C42.2545 37.2901 42.6073 35.9495 42.6955 33.7268C42.8013 31.3807 42.5191 29.899 41.6018 27.9586C40.8962 26.4945 39.6085 24.8187 38.8147 24.3424C38.0385 23.8661 36.5744 23.8837 34.2812 24.4306C31.9528 24.9774 30.9649 24.9774 28.5483 24.4306C26.1669 23.8837 24.8791 23.8661 24.103 24.3424ZM26.7843 29.6696C28.1425 30.728 27.8956 32.6155 26.308 33.2506C25.7435 33.4799 25.4789 33.4975 25.0026 33.3388C24.103 33.0389 23.5209 32.2274 23.5209 31.2749C23.5209 30.6046 23.6091 30.3929 24.1206 29.8813C24.6322 29.3698 24.8439 29.2816 25.5142 29.2816C26.0434 29.2816 26.4491 29.4051 26.7843 29.6696ZM38.7971 29.8813C39.3086 30.3929 39.3968 30.6046 39.3968 31.2749C39.3968 33.18 37.2095 34.1326 35.8865 32.7919C34.5458 31.4689 35.4984 29.2816 37.4035 29.2816C38.0738 29.2816 38.2855 29.3698 38.7971 29.8813Z" fill="url(#paint1_linear_276_95)"/>
<defs>
<linearGradient id="paint0_linear_276_95" x1="15.5493" y1="12.5545" x2="40.8185" y2="45.2986" gradientUnits="userSpaceOnUse">
<stop stop-color="#2563EB"/>
<stop offset="0.5" stop-color="#2885F0"/>
<stop offset="1" stop-color="#2CA1F4"/>
</linearGradient>
<linearGradient id="paint1_linear_276_95" x1="22.4631" y1="22.2559" x2="34.2517" y2="39.9267" gradientUnits="userSpaceOnUse">
<stop stop-color="#2563EB"/>
<stop offset="0.5" stop-color="#2885F0"/>
<stop offset="1" stop-color="#2CA1F4"/>
</linearGradient>
</defs>
</svg>
