<svg width="41" height="41" viewBox="0 0 41 41" fill="none" xmlns="http://www.w3.org/2000/svg">
<ellipse cx="20.6886" cy="20.4813" rx="19.9572" ry="19.9813" fill="url(#paint0_linear_285_37)"/>
<path fill-rule="evenodd" clip-rule="evenodd" d="M26.9012 11.3331L10.2345 15.5048C8.01935 16.0592 7.74283 19.0991 9.82151 20.0452L14.9566 22.3821C16.0094 22.8612 17.1491 23.0343 18.2565 22.9162C18.1386 24.025 18.3113 25.166 18.7899 26.22L21.1241 31.3613C22.069 33.4425 25.1052 33.1656 25.659 30.9479L29.8256 14.261C30.2672 12.4927 28.6674 10.891 26.9012 11.3331ZM15.8459 20.4233C16.8528 20.8816 17.9798 20.9166 18.9889 20.5582C19.3704 20.4228 19.735 20.2311 20.0699 19.9848C20.1165 19.9505 20.1626 19.9151 20.2081 19.8788L22.6674 17.9089C23.0588 17.5954 23.5709 18.1081 23.2577 18.5L21.2903 20.9623C21.2539 21.0078 21.2186 21.054 21.1844 21.1006C20.9384 21.436 20.7469 21.801 20.6116 22.1829C20.2536 23.1933 20.2886 24.3216 20.7463 25.3297L23.0804 30.471C23.1834 30.6975 23.5139 30.6674 23.5742 30.426L27.7409 13.7392C27.7889 13.5467 27.6147 13.3723 27.4225 13.4204L10.7557 17.5921C10.5146 17.6525 10.4845 17.9834 10.7108 18.0864L15.8459 20.4233Z" fill="white"/>
<defs>
<linearGradient id="paint0_linear_285_37" x1="20.6886" y1="0.5" x2="20.6886" y2="40.4625" gradientUnits="userSpaceOnUse">
<stop stop-color="#2573EC"/>
<stop offset="1" stop-color="#2CA1F4"/>
</linearGradient>
</defs>
</svg>
