<svg width="256" height="255" viewBox="0 0 256 255" fill="none" xmlns="http://www.w3.org/2000/svg">
<path d="M70.1933 98.9379C85.2431 67.0283 123.311 53.3609 155.221 68.4105C187.131 83.4602 200.798 121.528 185.749 153.437C170.699 185.347 132.631 199.015 100.722 183.966C68.8118 168.916 55.1437 130.848 70.1933 98.9379Z" stroke="url(#paint0_linear_142_516)"/>
<path d="M226 126.747C225.939 151.449 216.785 175.244 200.317 193.505C183.85 211.766 161.247 223.186 136.906 225.545C112.564 227.904 88.2245 221.032 68.6209 206.266C49.0173 191.501 35.5517 169.897 30.8433 145.658C26.135 121.419 30.5207 96.2768 43.1472 75.123C55.7737 53.9692 75.7383 38.316 99.1573 31.2082C122.576 24.1005 147.775 26.0464 169.853 36.6675C191.93 47.2885 209.307 65.8253 218.604 88.672C223.501 100.756 226.013 113.69 226 126.747ZM226 126.747C225.937 107.163 220.126 88.0369 209.303 71.7884C198.479 55.5399 183.129 42.8985 165.192 35.4629C145.845 27.5243 124.486 26.07 104.26 31.3142C84.0328 36.5583 66.0072 48.2239 52.8364 64.5933C39.6656 80.9629 32.0456 101.171 31.0981 122.244C30.1505 143.317 35.9257 164.14 47.5731 181.648C59.2206 199.156 76.1251 212.424 95.7979 219.499C115.471 226.574 136.872 227.082 156.852 220.947C176.832 214.813 194.334 202.361 206.783 185.425C219.231 168.488 225.967 147.962 226 126.867V126.747Z" fill="url(#paint1_linear_142_516)"/>
<path d="M1.64744 107.048C6.74567 75.8005 23.3323 47.5597 48.1801 27.8205C73.0279 8.08127 104.36 -1.74461 136.079 0.254683C167.798 2.25397 197.637 15.9354 219.788 38.6371C241.939 61.3387 254.82 91.4368 255.923 123.075C257.026 154.713 246.273 185.629 225.756 209.806C205.238 233.984 176.425 249.694 144.921 253.88C113.418 258.066 81.477 250.429 55.3144 232.454C29.1517 214.479 10.6382 187.452 3.3761 156.633C-0.440407 140.375 -1.02762 123.53 1.64744 107.048ZM1.64744 107.048C-1.66137 127.647 0.185627 148.742 7.02466 168.459C13.8637 188.177 25.4833 205.909 40.8524 220.081C56.2216 234.253 74.865 244.427 95.1287 249.701C115.392 254.975 136.65 255.185 157.015 250.314C177.309 245.44 196.085 235.662 211.685 221.845C227.285 208.029 239.229 190.597 246.461 171.092C253.693 151.586 255.991 130.607 253.151 110.007C250.312 89.407 242.422 69.8207 230.18 52.9785C217.938 36.1362 201.719 22.5563 182.958 13.4386C164.196 4.32095 143.469 -0.0539348 122.607 0.700496C101.745 1.45493 81.3911 7.31543 63.3427 17.7643C45.2944 28.2132 30.1074 42.9287 19.1235 60.6109C10.308 74.8039 4.37069 90.5802 1.64744 107.048Z" fill="url(#paint2_linear_142_516)"/>
<path d="M140.764 122.97C141.092 122.97 141.406 123.094 141.638 123.315C141.87 123.535 142 123.834 142 124.146V140.085C141.968 140.377 141.823 140.648 141.593 140.844C141.364 141.041 141.066 141.149 140.757 141.149C140.448 141.149 140.151 141.041 139.921 140.844C139.692 140.648 139.547 140.377 139.514 140.085V124.146C139.514 123.991 139.547 123.837 139.61 123.693C139.673 123.55 139.765 123.419 139.881 123.31C139.997 123.201 140.135 123.114 140.287 123.056C140.438 122.998 140.601 122.968 140.764 122.97Z" fill="#65AFBA"/>
<path d="M123.074 97H131.875C133.241 97 134.552 97.5594 135.519 98.5551C136.486 99.5508 137.029 100.901 137.029 102.309V136.821H117.971V102.309C117.971 100.91 118.507 99.568 119.463 98.5738C120.418 97.5795 121.716 97.014 123.074 97Z" fill="#65AFBA"/>
<path d="M127.493 155C127.165 155 126.851 154.873 126.619 154.648C126.387 154.422 126.257 154.116 126.257 153.798V139.64C126.29 139.341 126.435 139.065 126.664 138.864C126.894 138.663 127.191 138.552 127.5 138.552C127.809 138.552 128.106 138.663 128.336 138.864C128.565 139.065 128.71 139.341 128.743 139.64V153.798C128.743 153.957 128.71 154.114 128.647 154.261C128.584 154.408 128.492 154.541 128.376 154.653C128.26 154.764 128.122 154.853 127.97 154.912C127.819 154.972 127.657 155.002 127.493 155Z" fill="#65AFBA"/>
<path d="M142 139.851C142 140.195 141.879 140.525 141.663 140.769C141.447 141.012 141.154 141.149 140.849 141.149H114.151C113.846 141.149 113.553 141.012 113.337 140.769C113.121 140.525 113 140.195 113 139.851C113 139.506 113.121 139.176 113.337 138.933C113.553 138.689 113.846 138.552 114.151 138.552H140.849C141.154 138.552 141.447 138.689 141.663 138.933C141.879 139.176 142 139.506 142 139.851Z" fill="#65AFBA"/>
<path d="M114.236 122.97C114.399 122.968 114.562 122.998 114.713 123.056C114.865 123.114 115.003 123.201 115.119 123.31C115.235 123.419 115.327 123.55 115.39 123.693C115.453 123.837 115.486 123.991 115.486 124.146V140.085C115.453 140.377 115.308 140.648 115.079 140.844C114.849 141.041 114.552 141.149 114.243 141.149C113.934 141.149 113.636 141.041 113.407 140.844C113.177 140.648 113.032 140.377 113 140.085V124.146C113 123.992 113.032 123.839 113.094 123.696C113.156 123.554 113.247 123.424 113.362 123.315C113.477 123.206 113.613 123.119 113.763 123.06C113.913 123.001 114.074 122.97 114.236 122.97Z" fill="#65AFBA"/>
<path d="M135.179 155H120.65C120.369 154.966 120.11 154.815 119.921 154.575C119.733 154.335 119.629 154.024 119.629 153.701C119.629 153.379 119.733 153.068 119.921 152.828C120.11 152.588 120.369 152.437 120.65 152.403H135.179C135.459 152.437 135.719 152.588 135.907 152.828C136.096 153.068 136.2 153.379 136.2 153.701C136.2 154.024 136.096 154.335 135.907 154.575C135.719 154.815 135.459 154.966 135.179 155Z" fill="#65AFBA"/>
<defs>
<linearGradient id="paint0_linear_142_516" x1="155.434" y1="67.958" x2="100.508" y2="184.418" gradientUnits="userSpaceOnUse">
<stop stop-color="#2563EB"/>
<stop offset="0.5" stop-color="#2FBAF8"/>
<stop offset="1" stop-color="#34E5FF"/>
</linearGradient>
<linearGradient id="paint1_linear_142_516" x1="127.5" y1="27" x2="127.5" y2="226" gradientUnits="userSpaceOnUse">
<stop stop-color="#2563EB"/>
<stop offset="0.495192" stop-color="#2FBAF8"/>
<stop offset="1" stop-color="#D7EFFA"/>
</linearGradient>
<linearGradient id="paint2_linear_142_516" x1="128" y1="0" x2="128" y2="255" gradientUnits="userSpaceOnUse">
<stop stop-color="#2563EB"/>
<stop offset="0.495192" stop-color="#2FBAF8"/>
<stop offset="1" stop-color="#D7EFFA"/>
</linearGradient>
</defs>
</svg>
