<svg width="43" height="40" viewBox="0 0 43 40" fill="none" xmlns="http://www.w3.org/2000/svg">
<path d="M1.02472 0.285007C0.754307 0.455795 0.441198 0.825832 0.284644 1.18164C0.0142322 1.76516 0 2.29175 0 16.5097C0 30.7277 0.0142322 31.2543 0.284644 31.8378C0.441198 32.1936 0.754307 32.5636 1.02472 32.7344C1.48015 33.0048 1.7221 33.0191 8.08389 33.0191C13.8764 33.0191 15.1146 33.076 14.5453 33.3322C14.4884 33.3464 13.9903 33.873 13.4494 34.4992C12.8944 35.1112 12.2255 35.7232 11.9408 35.8655C10.7026 36.506 10.5176 38.1 11.585 38.9254L12.0547 39.2812H21.0067C29.6172 39.2812 29.973 39.267 30.4142 38.9966C30.9835 38.655 31.2112 38.2281 31.2112 37.5022C31.2112 36.7764 30.8554 36.2071 30.1723 35.8655C29.8876 35.7232 29.2187 35.097 28.6637 34.485C28.1228 33.873 27.6389 33.3464 27.582 33.3322C27.0127 33.076 28.2509 33.0191 34.0577 33.0191C40.4052 33.0191 40.6472 33.0048 41.1026 32.7344C41.373 32.5636 41.6861 32.1936 41.8427 31.8378C42.1131 31.2543 42.1273 30.7277 42.1273 16.5097C42.1273 2.29175 42.1131 1.76516 41.8427 1.18164C41.6861 0.825832 41.373 0.455795 41.1026 0.285007C40.6329 0.000362396 40.4337 0.000362396 21.0637 0.000362396C1.69363 0.000362396 1.49438 0.000362396 1.02472 0.285007ZM40.5333 1.45205C40.6614 1.58014 40.7041 5.12396 40.7041 16.5382C40.7041 31.1262 40.7041 31.4535 40.4337 31.5959C40.2487 31.6955 33.9438 31.7382 21.0637 31.7382C8.18352 31.7382 1.87865 31.6955 1.69363 31.5959C1.42322 31.4535 1.42322 31.1262 1.42322 16.5382C1.42322 5.12396 1.46592 1.58014 1.59401 1.45205C1.83595 1.2101 40.2914 1.2101 40.5333 1.45205ZM16.367 32.3644C16.367 32.3929 15.9401 32.8625 15.4277 33.3891C14.4884 34.3711 14.4884 34.3711 14.8015 33.7449L15.1004 33.1329L14.8157 32.8198C14.6449 32.649 14.5169 32.464 14.5169 32.4071C14.5169 32.3502 14.9296 32.3075 15.4419 32.3075C15.9543 32.3075 16.367 32.3359 16.367 32.3644ZM27.6105 32.4071C27.6105 32.464 27.4824 32.649 27.3116 32.8198C27.027 33.1187 27.027 33.1614 27.2547 33.6168C27.5251 34.1577 29.176 35.9509 29.8592 36.4206C30.1011 36.5914 30.3858 36.876 30.4712 37.0468C30.5992 37.2745 30.5138 37.246 30.1438 36.8902C29.7026 36.4633 29.5888 36.4348 28.7064 36.4348H27.7386L28.0517 36.0221C28.4786 35.4386 28.3079 35.097 26.8989 33.6168C26.2727 32.9622 25.7603 32.3929 25.7603 32.3644C25.7603 32.3359 26.173 32.3075 26.6854 32.3075C27.1977 32.3075 27.6105 32.3502 27.6105 32.4071ZM25.8599 33.2183C25.9311 33.3322 26.4434 33.9442 27.0127 34.5704L28.0517 35.7232H21.0637H14.0757L15.2569 34.3854L16.4382 33.0475L21.0921 33.0333C25.006 33.0191 25.7603 33.0475 25.8599 33.2183ZM14.0472 34.9974L13.7341 35.5666L14.0614 35.9936L14.3888 36.4348H13.421C12.5813 36.4348 12.4247 36.4775 12.0689 36.8191C11.8554 37.0183 11.6419 37.1607 11.585 37.118C11.5423 37.0753 11.7558 36.8475 12.0547 36.6198C12.3536 36.4063 12.9798 35.8228 13.4352 35.3247C13.9049 34.8408 14.3034 34.4423 14.3176 34.4423C14.3318 34.4423 14.218 34.6985 14.0472 34.9974ZM29.7168 37.1322C29.8307 37.1891 29.8876 37.4026 29.8592 37.5876L29.8165 37.9292H21.0637C12.7378 37.9292 12.3109 37.915 12.2682 37.673C12.1258 36.9756 11.7843 37.0041 20.9498 37.0041C25.6749 37.0041 29.6172 37.061 29.7168 37.1322Z" fill="url(#paint0_linear_747_390)"/>
<path d="M2.40518 2.10669C2.149 2.29171 2.13477 2.76137 2.13477 15.2288C2.13477 26.7996 2.16323 28.1801 2.36248 28.3793C2.56173 28.5786 4.45462 28.6071 21.0636 28.6071C37.6726 28.6071 39.5655 28.5786 39.7647 28.3793C39.964 28.1801 39.9924 26.7996 39.9924 15.243C39.9924 4.48347 39.964 2.29171 39.7932 2.14938C39.4943 1.89321 2.76098 1.85051 2.40518 2.10669ZM3.24488 2.97485C2.84638 3.48721 2.70405 3.51568 2.70405 3.08871C2.70405 2.66174 2.80368 2.56212 3.23065 2.56212H3.58645L3.24488 2.97485ZM39.352 2.86099C39.5085 3.34489 39.2381 3.41605 38.8823 2.97485L38.5408 2.56212H38.9108C39.1385 2.56212 39.2951 2.66174 39.352 2.86099ZM38.7115 15.2999V27.3262H21.0636H3.41566V15.2999V3.27373H21.0636H38.7115V15.2999ZM39.4231 27.3831C39.4231 27.7247 39.0389 28.0805 38.7969 27.9951C38.5692 27.9097 38.5834 27.8527 38.8823 27.4827C39.2097 27.0842 39.4231 27.0415 39.4231 27.3831ZM3.27334 27.5396C3.55799 27.8527 3.57222 27.8954 3.35874 27.9808C3.05986 28.0947 2.70405 27.8101 2.70405 27.4542C2.70405 27.0842 2.87484 27.1127 3.27334 27.5396Z" fill="url(#paint1_linear_747_390)"/>
<path d="M10.3177 4.24151C9.17911 4.78233 8.53866 5.83552 8.53866 7.14488C8.53866 7.55761 8.63829 8.0842 8.75215 8.31192C9.02256 8.82428 9.02256 8.9666 8.75215 8.9666C8.62406 8.9666 8.21132 9.27971 7.82705 9.66398C6.93042 10.5606 6.68848 11.3434 6.68848 13.3928C6.68848 14.5883 6.73117 14.9726 6.91619 15.1434C7.10121 15.3426 7.74166 15.3711 11.6555 15.3711C14.9716 15.3711 16.2098 15.3284 16.3379 15.2003C16.5656 14.9726 16.5656 11.685 16.3379 10.9306C16.1387 10.2617 15.2563 9.20855 14.6727 8.98083L14.26 8.79581L14.5447 8.15536C15.0855 6.91716 14.6016 5.32316 13.4061 4.49769C12.6091 3.9284 11.2143 3.82877 10.3177 4.24151ZM12.5379 5.49394C13.1641 5.80705 13.5769 6.80331 13.3918 7.48645C12.9649 9.05199 10.9439 9.39357 10.1042 8.04151C9.13642 6.47596 10.887 4.64001 12.5379 5.49394ZM10.0046 8.76735L10.5454 9.35087L10.0473 9.3651C9.76263 9.37933 9.33567 9.49319 9.07949 9.62128L8.60982 9.849L9.00833 9.43626C9.26451 9.15162 9.3926 8.86698 9.3926 8.53963C9.3926 8.28345 9.40683 8.09844 9.43529 8.1269C9.44952 8.15536 9.7057 8.45424 10.0046 8.76735ZM13.89 8.45424C13.833 8.71042 13.9042 8.9239 14.1746 9.23701L14.5304 9.67821L13.9327 9.46473C13.6053 9.35087 13.2211 9.25125 13.0645 9.25125C12.8083 9.25125 12.8368 9.18008 13.2495 8.69619C13.8046 8.04151 14.0181 7.97035 13.89 8.45424ZM11.1289 10.1479C11.684 10.276 11.9544 10.2617 12.5948 10.0482C13.3776 9.8063 13.3918 9.8063 13.9754 10.1336C14.9716 10.6887 15.1566 11.0587 15.1993 12.6812L15.2563 14.0902H11.6128H7.96938V13.2647C7.98361 12.1546 8.16863 11.2865 8.49597 10.831C8.83754 10.3756 9.94765 9.77784 10.2465 9.90593C10.3604 9.96286 10.7589 10.0767 11.1289 10.1479ZM15.8825 14.6026C15.8113 14.7876 15.2278 14.9014 15.2278 14.7306C15.2278 14.6879 15.3701 14.446 15.5551 14.2183C15.854 13.8056 15.8682 13.7913 15.9109 14.0902C15.9394 14.261 15.9252 14.4887 15.8825 14.6026ZM7.78436 14.261C8.18286 14.631 8.19709 14.8018 7.82705 14.8018C7.57087 14.8018 7.25776 14.4318 7.25776 14.1044C7.25776 13.8625 7.41432 13.9194 7.78436 14.261Z" fill="url(#paint2_linear_747_390)"/>
<path d="M31.1108 7.67151C30.6838 8.14118 30.9684 8.61084 31.7939 8.76739L32.4344 8.89548L28.2928 11.4573C26.0014 12.8663 23.895 14.1899 23.5962 14.4176C22.9699 14.873 22.8988 15.2715 23.4111 15.5989C23.7669 15.8266 23.8096 15.7981 27.4958 13.5067C29.5595 12.2401 31.6089 10.9449 32.0501 10.646C32.4913 10.3472 32.8898 10.1052 32.9325 10.1052C32.9752 10.1052 32.904 10.3329 32.7759 10.6033C32.5482 11.073 32.5482 11.1157 32.8044 11.3861C33.2741 11.9127 33.6156 11.6992 34.1849 10.5322C34.4696 9.94867 34.8254 9.19436 34.9535 8.85279C35.1812 8.2835 35.1812 8.2408 34.9535 7.98462C34.7827 7.7996 34.4269 7.69998 33.6868 7.62882C33.1175 7.57189 32.3774 7.50073 32.0216 7.45803C31.495 7.38687 31.3385 7.42957 31.1108 7.67151ZM33.701 8.2408C34.0284 8.31196 34.3415 8.39736 34.3842 8.44005C34.4838 8.52544 33.758 10.2333 33.516 10.5037C33.3737 10.6603 33.3168 10.6318 33.2456 10.3329C33.146 9.93443 32.6336 9.72095 32.2066 9.89174C32.0359 9.94867 32.0786 9.84904 32.349 9.57863C32.8186 9.0805 32.8329 8.86702 32.4201 8.44005L32.1213 8.11271H32.6052C32.8756 8.12694 33.3595 8.18387 33.701 8.2408Z" fill="url(#paint3_linear_747_390)"/>
<path d="M32.5334 13.1224C32.3341 13.3928 32.3057 14.2325 32.3057 19.3277C32.3057 23.1134 32.3626 25.3052 32.448 25.4902C32.5903 25.7322 32.7753 25.7606 34.6255 25.7606C36.0203 25.7606 36.7176 25.7037 36.8315 25.5898C36.9596 25.4617 37.0023 23.8677 37.0023 19.2565C37.0023 13.3217 36.9881 13.094 36.7319 12.9516C36.5753 12.8805 35.6218 12.8093 34.597 12.8093C32.8465 12.8093 32.7326 12.8235 32.5334 13.1224ZM33.4158 13.9479C33.245 14.1756 33.0884 14.3749 33.06 14.3749C33.0315 14.3749 33.0173 14.1756 33.0173 13.9479C33.0173 13.5921 33.0742 13.5209 33.3731 13.5209H33.7431L33.4158 13.9479ZM36.4045 14.019L36.4615 14.446L36.0914 14.1044C35.636 13.6775 35.6218 13.4925 36.0487 13.5494C36.2764 13.5779 36.3761 13.7059 36.4045 14.019ZM35.7214 19.3134V24.4797H34.6967H33.6577L33.6862 19.3277C33.7147 16.4812 33.7289 14.1614 33.7289 14.1614C33.7289 14.1614 34.1843 14.1614 34.7251 14.1614H35.7214V19.3134ZM33.4442 24.7644L33.7431 25.1913H33.3873C33.0742 25.1913 33.0173 25.1344 33.0173 24.7644C33.0173 24.5224 33.0457 24.3374 33.0742 24.3374C33.1169 24.3374 33.2735 24.5224 33.4442 24.7644ZM36.3761 24.9921C36.3334 25.1059 36.1199 25.1913 35.9064 25.1913H35.5221L35.9491 24.7501C36.2764 24.4086 36.3761 24.3659 36.4045 24.5509C36.433 24.679 36.4188 24.8782 36.3761 24.9921Z" fill="url(#paint4_linear_747_390)"/>
<path d="M12.8646 15.9973C12.6226 16.097 12.2953 16.3531 12.1387 16.5666L11.8399 16.9367H9.43462C7.49904 16.9367 6.97245 16.9794 6.71627 17.1644C6.332 17.4348 6.31777 17.7052 6.6878 18.0752C6.95822 18.3457 7.14324 18.3741 9.40616 18.3599L11.8256 18.3314L12.1245 18.7157C12.8077 19.5981 14.0316 19.6693 14.8002 18.9007C15.0421 18.673 15.2271 18.4311 15.2271 18.3884C15.2271 18.3314 15.7395 18.303 16.3515 18.3314C17.3477 18.3741 17.5185 18.3457 17.7747 18.0895C18.1447 17.7194 18.1447 17.5771 17.7889 17.2213C17.547 16.9794 17.3193 16.9367 16.3799 16.9367C15.3837 16.9367 15.2129 16.894 15.0279 16.6378C14.544 15.9404 13.6047 15.67 12.8646 15.9973ZM12.8219 17.0221C12.4518 17.4917 12.4518 17.7052 12.8219 18.2318C13.2062 18.7869 13.0069 18.7442 12.3238 18.1464L11.7687 17.6483L12.3238 17.1502C12.9927 16.5666 13.2346 16.5097 12.8219 17.0221ZM14.7575 17.1359L15.3695 17.6198L14.7859 18.1322C14.1312 18.7015 13.7185 18.8296 14.2024 18.3172C14.3732 18.1322 14.5155 17.8333 14.5155 17.6483C14.5155 17.4633 14.3732 17.1644 14.2024 16.9794C13.747 16.4955 14.0743 16.5809 14.7575 17.1359ZM13.8608 17.3067C14.1455 17.5771 14.1455 17.7194 13.8608 17.9899C13.5904 18.2745 13.0923 18.061 13.0923 17.6483C13.0923 17.4348 13.3912 17.1217 13.6189 17.079C13.6331 17.079 13.747 17.1786 13.8608 17.3067Z" fill="url(#paint5_linear_747_390)"/>
<path d="M27.1536 16.9509C26.9117 17.079 26.8975 17.4348 26.8975 21.249C26.8975 24.3089 26.9402 25.4617 27.0682 25.5898C27.1821 25.7037 27.8795 25.7606 29.2742 25.7606C31.1244 25.7606 31.3094 25.7322 31.4518 25.4902C31.5372 25.3194 31.5941 23.7254 31.5941 21.3202C31.5941 18.0325 31.5656 17.3779 31.3664 17.1074C31.1671 16.8086 31.0533 16.7943 29.2742 16.7943C28.2353 16.7943 27.2817 16.8655 27.1536 16.9509ZM27.851 18.0325L27.4667 18.431V18.0468C27.4667 17.6198 27.8795 17.2925 28.1072 17.5202C28.1926 17.6056 28.093 17.7906 27.851 18.0325ZM30.8825 17.9614V18.3741L30.5409 17.9756C30.3274 17.7194 30.2563 17.5486 30.3417 17.4775C30.6263 17.3067 30.8825 17.5344 30.8825 17.9614ZM30.2136 21.3202L30.242 24.4797H29.2173H28.1784V21.3059V18.1179L29.1746 18.1464L30.1851 18.1606L30.2136 21.3202ZM28.093 25.1629C27.6945 25.2625 27.4667 25.0632 27.4667 24.622V24.1951L27.8795 24.6505C28.2068 25.0063 28.2495 25.1344 28.093 25.1629ZM30.8825 24.7644C30.8825 25.1344 30.8255 25.1913 30.5124 25.1913H30.1566L30.4555 24.7644C30.6263 24.5224 30.7829 24.3374 30.8255 24.3374C30.854 24.3374 30.8825 24.5224 30.8825 24.7644Z" fill="url(#paint6_linear_747_390)"/>
<path d="M10.8582 19.712C10.6163 19.8116 10.3032 20.0678 10.1751 20.2671C9.93315 20.6229 9.89045 20.6371 8.39607 20.6371C7.05824 20.6371 6.84476 20.6656 6.61704 20.9218C6.40356 21.1637 6.38933 21.2633 6.51742 21.5622C6.67397 21.918 6.71667 21.918 8.28221 21.918H9.89045L10.289 22.4161C11.0148 23.327 12.253 23.327 13.0215 22.4304L13.4485 21.918L15.6403 21.8895C17.7324 21.8469 17.832 21.8326 17.9459 21.548C18.017 21.3487 17.9743 21.1352 17.8463 20.936C17.647 20.6513 17.5047 20.6371 15.4837 20.6371C13.3631 20.6371 13.3489 20.6371 13.0642 20.2813C12.4949 19.5412 11.6979 19.342 10.8582 19.712ZM10.9863 20.6798C10.6021 21.0925 10.5878 21.6476 10.9579 21.9892C11.5129 22.4873 11.1144 22.3734 10.474 21.8469L9.83352 21.3203L10.4882 20.7652C11.1571 20.1675 11.5129 20.1105 10.9863 20.6798ZM12.865 20.8364L13.4343 21.3203L12.9504 21.733C12.2388 22.345 12.0395 22.4446 12.2245 22.0888C12.3099 21.918 12.4522 21.7472 12.5234 21.7045C12.7511 21.5622 12.68 21.1352 12.3669 20.7225C11.9684 20.2101 12.1961 20.2671 12.865 20.8364ZM11.9541 20.9929C12.0395 21.1068 12.0964 21.306 12.068 21.4483C12.011 21.7899 11.3991 21.7899 11.1856 21.4483C11.0575 21.2349 11.086 21.1495 11.2994 20.9787C11.6552 20.7225 11.7406 20.7225 11.9541 20.9929Z" fill="url(#paint7_linear_747_390)"/>
<path d="M21.49 20.4805C21.4046 20.637 21.3477 21.7187 21.3477 22.9853C21.3477 24.252 21.4046 25.3337 21.49 25.4902C21.6323 25.7322 21.8173 25.7606 23.6675 25.7606C25.0623 25.7606 25.7596 25.7037 25.8735 25.5898C26.1154 25.3479 26.1154 20.6228 25.8735 20.3808C25.7596 20.267 25.0623 20.2101 23.6675 20.2101C21.8173 20.2101 21.6323 20.2385 21.49 20.4805ZM22.7709 20.8932C22.7709 20.9644 22.6143 21.1636 22.4293 21.3344C22.1447 21.6048 22.0877 21.619 22.0166 21.434C21.8742 21.0782 22.0593 20.7793 22.4293 20.7793C22.6143 20.7793 22.7709 20.8363 22.7709 20.8932ZM25.4038 22.9853V25.1202L24.9769 25.1629L24.5499 25.2198L24.9484 24.8071C25.3184 24.4086 25.3327 24.3232 25.3327 22.9711C25.3327 21.7187 25.29 21.5052 25.048 21.2775C24.678 20.9359 24.6922 20.7509 25.0907 20.8078C25.4038 20.8505 25.4038 20.879 25.4038 22.9853ZM24.7634 22.9853V24.4797H23.7387H22.6997V22.9853V21.491H23.7387H24.7634V22.9853ZM22.4862 24.7644L22.7851 25.1913H22.4293C22.0735 25.1913 21.8031 24.7786 21.9881 24.4797C22.1162 24.2662 22.1447 24.2947 22.4862 24.7644Z" fill="url(#paint8_linear_747_390)"/>
<path d="M12.7084 23.6258C12.4522 23.7823 12.1676 24.0385 12.068 24.1951C11.8972 24.4655 11.7406 24.4797 9.37809 24.4797C7.05824 24.4797 6.85899 24.4939 6.61704 24.7643C6.40356 25.0063 6.38933 25.1059 6.51742 25.4048L6.6882 25.7606H9.25H11.8118L12.0395 26.1306C12.3669 26.6145 12.9646 26.8992 13.6762 26.8992C14.1886 26.8992 14.3594 26.8138 14.8148 26.3299C15.3414 25.7748 15.3414 25.7748 16.5938 25.7321C17.7039 25.6894 17.8463 25.661 17.9459 25.3906C18.017 25.1913 17.9743 24.9778 17.8463 24.7786C17.6612 24.5082 17.4904 24.4797 16.4515 24.4797C15.3272 24.4797 15.2418 24.4655 15.014 24.1097C14.7579 23.7112 14.0178 23.3411 13.4912 23.3411C13.3062 23.3411 12.9646 23.4692 12.7084 23.6258ZM12.7796 24.6362L12.4522 25.0632L12.7654 25.6325C13.0927 26.2303 12.9931 26.216 12.2388 25.5756L11.7549 25.1628L12.3242 24.6789C13.0215 24.0812 13.1923 24.067 12.7796 24.6362ZM14.7863 24.6789L15.3556 25.1628L14.7152 25.6894C14.0747 26.216 13.6762 26.3299 14.2313 25.8318C14.5728 25.5186 14.6013 25.0205 14.2882 24.5509C13.9751 24.067 14.0889 24.1097 14.7863 24.6789ZM13.9609 24.8497C14.2028 25.1486 13.9609 25.5471 13.5054 25.5471C13.1212 25.5471 12.9788 25.1486 13.235 24.8355C13.4627 24.5651 13.7189 24.5651 13.9609 24.8497Z" fill="url(#paint9_linear_747_390)"/>
<defs>
<linearGradient id="paint0_linear_747_390" x1="-5.08196" y1="-3.88902" x2="46.506" y2="39.1777" gradientUnits="userSpaceOnUse">
<stop stop-color="#2563EB"/>
<stop offset="0.504808" stop-color="#2FBAF8"/>
<stop offset="1" stop-color="#34E5FF"/>
</linearGradient>
<linearGradient id="paint1_linear_747_390" x1="-2.43214" y1="-0.706389" x2="32.9932" y2="38.4332" gradientUnits="userSpaceOnUse">
<stop stop-color="#2563EB"/>
<stop offset="0.504808" stop-color="#2FBAF8"/>
<stop offset="1" stop-color="#34E5FF"/>
</linearGradient>
<linearGradient id="paint2_linear_747_390" x1="5.50383" y1="2.86232" x2="19.5669" y2="12.3073" gradientUnits="userSpaceOnUse">
<stop stop-color="#2563EB"/>
<stop offset="0.504808" stop-color="#2FBAF8"/>
<stop offset="1" stop-color="#34E5FF"/>
</linearGradient>
<linearGradient id="paint3_linear_747_390" x1="21.6173" y1="6.60865" x2="32.5596" y2="19.0316" gradientUnits="userSpaceOnUse">
<stop stop-color="#2563EB"/>
<stop offset="0.504808" stop-color="#2FBAF8"/>
<stop offset="1" stop-color="#34E5FF"/>
</linearGradient>
<linearGradient id="paint4_linear_747_390" x1="31.7391" y1="11.5269" x2="40.7784" y2="14.0786" gradientUnits="userSpaceOnUse">
<stop stop-color="#2563EB"/>
<stop offset="0.504808" stop-color="#2FBAF8"/>
<stop offset="1" stop-color="#34E5FF"/>
</linearGradient>
<linearGradient id="paint5_linear_747_390" x1="5.01537" y1="15.5055" x2="8.26969" y2="23.7573" gradientUnits="userSpaceOnUse">
<stop stop-color="#2563EB"/>
<stop offset="0.504808" stop-color="#2FBAF8"/>
<stop offset="1" stop-color="#34E5FF"/>
</linearGradient>
<linearGradient id="paint6_linear_747_390" x1="26.3309" y1="15.9065" x2="34.6993" y2="19.3187" gradientUnits="userSpaceOnUse">
<stop stop-color="#2563EB"/>
<stop offset="0.504808" stop-color="#2FBAF8"/>
<stop offset="1" stop-color="#34E5FF"/>
</linearGradient>
<linearGradient id="paint7_linear_747_390" x1="5.04288" y1="19.1771" x2="8.31353" y2="27.4091" gradientUnits="userSpaceOnUse">
<stop stop-color="#2563EB"/>
<stop offset="0.504808" stop-color="#2FBAF8"/>
<stop offset="1" stop-color="#34E5FF"/>
</linearGradient>
<linearGradient id="paint8_linear_747_390" x1="20.7798" y1="19.6605" x2="27.5926" y2="24.158" gradientUnits="userSpaceOnUse">
<stop stop-color="#2563EB"/>
<stop offset="0.504808" stop-color="#2FBAF8"/>
<stop offset="1" stop-color="#34E5FF"/>
</linearGradient>
<linearGradient id="paint9_linear_747_390" x1="5.04288" y1="22.9888" x2="8.29395" y2="31.2" gradientUnits="userSpaceOnUse">
<stop stop-color="#2563EB"/>
<stop offset="0.504808" stop-color="#2FBAF8"/>
<stop offset="1" stop-color="#34E5FF"/>
</linearGradient>
</defs>
</svg>
