<svg width="43" height="40" viewBox="0 0 43 40" fill="none" xmlns="http://www.w3.org/2000/svg">
<path d="M12.3108 1.32393C11.4422 1.72265 10.7302 2.43465 10.2603 3.36026C9.93275 3.98682 9.90427 4.2289 9.86155 6.42188L9.80459 8.81421H6.51513H3.21143L2.35703 9.22718C1.88711 9.45502 1.30326 9.85374 1.04694 10.1101C0.477337 10.7224 0.00741394 11.7334 0.00741394 12.3742V12.8726L0.292216 12.5166C0.448857 12.3173 0.577017 12.0894 0.577017 12.004C0.577017 11.9328 0.762139 11.5625 0.98998 11.2065C1.43142 10.5088 2.14343 9.89646 2.71303 9.73982C2.99783 9.66862 2.95511 9.71134 2.57063 9.95342C1.75894 10.4661 1.41718 10.8363 1.06118 11.591L0.719418 12.303V20.4199C0.719418 25.7457 0.776379 28.7219 0.876059 29.0779C1.01846 29.6047 2.10071 30.8436 2.78423 31.2851C2.94087 31.3847 2.78423 31.3278 2.44247 31.1569C1.64502 30.7724 1.2463 30.3452 0.605498 29.1348C0.320696 28.5795 0.0643743 28.2234 0.0358941 28.3089C-0.106507 28.7219 0.192535 29.7614 0.619738 30.3595C1.1751 31.1427 1.63078 31.5129 2.52791 31.9259C3.15447 32.1964 3.45351 32.2249 5.80313 32.2392H8.40907V35.9558C8.40907 39.9288 8.42331 40 9.13531 40C9.46283 40 9.94699 39.5301 12.0118 37.2517C13.3789 35.7565 14.931 34.0334 15.4721 33.4353L16.4547 32.3531L17.9357 32.2676C18.7474 32.2107 21.6096 32.168 24.2868 32.168C29.8262 32.168 30.0113 32.1395 31.179 31.0857C31.9337 30.4022 32.4891 29.3199 32.5318 28.4371C32.5318 28.138 32.5887 27.9102 32.6315 27.9386C32.6742 27.9529 33.5571 28.907 34.5823 30.0462C35.6219 31.1996 36.576 32.1822 36.7041 32.2249C36.818 32.2819 37.0744 32.2107 37.2595 32.0968L37.6012 31.8832V28.138V24.4071L38.4414 24.3929C40.4208 24.3501 42.2008 22.8265 42.4002 21.018C42.4998 20.1208 42.3574 20.2063 41.7451 21.4167C41.2182 22.4705 40.7625 22.9689 39.9793 23.3391C39.6518 23.4957 39.5094 23.5527 39.6518 23.453C40.3353 23.0116 41.1755 22.1287 41.4461 21.5733C41.7166 20.9895 41.7309 20.7474 41.7309 12.716V4.47099L41.3891 3.75898C41.0331 3.00426 40.6913 2.63402 39.8797 2.12137C39.4952 1.87929 39.4667 1.83657 39.7373 1.92201C40.5205 2.13561 41.3464 2.96154 41.7736 3.97258C41.8875 4.24314 42.0869 4.59915 42.215 4.75579C42.4286 5.02635 42.4286 5.02635 42.4429 4.54219C42.4429 3.43146 41.4603 2.06441 40.1645 1.38089L39.5237 1.05337L26.2804 1.02489L13.0371 0.982166L12.3108 1.32393ZM12.7523 1.97897C12.7096 2.05017 12.5814 2.12137 12.4817 2.12137C12.2112 2.12137 11.1289 3.33178 10.8868 3.90138C10.7444 4.25739 10.6875 5.01211 10.6875 6.59276V8.78573L11.1289 9.15598L11.5704 9.52622H10.5593H9.54827L10.004 9.11325L10.4739 8.70029L10.5451 6.29372C10.6163 3.87291 10.6875 3.54538 11.2856 2.83338C11.784 2.23529 13.0513 1.50905 12.7523 1.97897ZM36.9889 2.39193C39.6945 2.49162 39.7657 2.50586 40.6486 3.60234L41.0901 4.14347L41.1328 12.5024L41.1755 20.8613L40.8337 21.4879C40.6201 21.9009 40.2641 22.2711 39.8369 22.5417C39.2673 22.8834 38.9968 22.9546 37.8576 23.0116C36.875 23.0685 36.4905 23.1397 36.3624 23.3106C36.22 23.4815 36.1772 24.3786 36.1772 26.6713V29.8041L35.6504 29.1633C35.3513 28.8215 34.5539 27.9386 33.8703 27.1982L32.6315 25.8454L32.5887 18.8677L32.546 11.8758L32.19 11.1923C31.7201 10.2525 31.0081 9.5547 30.0682 9.11325L29.2708 8.74301L20.2568 8.79997L11.2428 8.84269L11.2856 6.50732C11.3283 4.18619 11.3283 4.15771 11.7412 3.57386C11.9833 3.20362 12.4105 2.84762 12.8662 2.61978L13.5925 2.26377L24.0589 2.27802C29.8262 2.29226 35.6361 2.33498 36.9889 2.39193ZM30.4242 10.0389C30.7233 10.2525 31.065 10.523 31.1647 10.6512C31.5207 11.0926 31.9052 12.0182 31.891 12.4454C31.8767 12.8157 31.8482 12.773 31.6916 12.2034C31.4353 11.235 30.8372 10.4945 29.8262 9.85374C29.6695 9.7683 29.6268 9.68286 29.7122 9.68286C29.7977 9.66862 30.1252 9.8395 30.4242 10.0389ZM29.7265 10.5088C30.0682 10.7081 30.5097 11.1069 30.7233 11.4201L31.122 11.9898L31.1647 20.192C31.2074 29.3911 31.2359 29.1491 30.1964 30.0889C29.8831 30.3595 29.4417 30.6158 29.1711 30.6585C28.4591 30.7724 23.589 30.8863 19.5163 30.8863H15.8851L13.6067 33.3926C12.3536 34.7739 10.9865 36.2833 10.5878 36.7533L9.83307 37.5934V34.5176C9.83307 32.6664 9.77611 31.3278 9.69067 31.1569C9.54827 30.9006 9.36315 30.8863 6.75722 30.8863C3.5532 30.8863 2.94087 30.7724 2.20039 30.0604C1.26054 29.1491 1.28902 29.4623 1.28902 20.5196V12.4312L1.61654 11.8046C1.78742 11.4629 2.17191 10.9787 2.47095 10.7509L3.02631 10.3094L7.09898 10.224C9.34891 10.1813 15.2301 10.1528 20.1571 10.1528L29.1284 10.167L29.7265 10.5088ZM37.7436 23.7236C37.7436 23.7948 37.5728 23.9941 37.3876 24.1793L37.0316 24.5068V27.8959C37.0316 30.3167 36.9889 31.3278 36.8608 31.399C36.7753 31.4559 36.4051 31.1854 35.9779 30.7155C35.5792 30.2883 34.7675 29.4196 34.1694 28.7788C32.7169 27.2124 32.3467 27.2409 31.8198 28.9355C31.6774 29.3911 31.3641 30.0035 31.1078 30.2883C30.6378 30.8436 29.4844 31.5841 29.4844 31.3278C29.4844 31.2566 29.6126 31.1569 29.7692 31.0999C30.2106 30.9575 31.1362 30.0177 31.4638 29.3627C31.7201 28.8643 31.7628 28.5083 31.7628 27.1839C31.7628 25.6175 31.8625 25.3042 32.1615 25.9735C32.247 26.1586 32.8593 26.9134 33.5001 27.6396C35.7785 30.1743 36.0633 30.3737 36.519 29.7187C36.7041 29.4623 36.7468 28.907 36.7468 26.6855C36.7468 24.7631 36.8038 23.9087 36.9177 23.7948C37.1028 23.6097 37.7436 23.5527 37.7436 23.7236ZM9.12107 31.7265C9.20651 31.8974 9.26347 33.0936 9.26347 34.6172C9.26347 36.7533 9.30619 37.2944 9.49131 37.5507C9.96124 38.2342 10.2176 38.0491 13.3219 34.5888C15.8282 31.7977 16.1699 31.4559 16.469 31.4559C16.7822 31.4559 16.711 31.6838 16.3266 31.8547C16.1414 31.9401 14.5038 33.6489 12.6811 35.6425C10.8441 37.6504 9.29195 39.2738 9.20651 39.2453C9.10683 39.2168 9.03563 38.0491 9.00715 35.7707L8.97867 32.3531L8.62267 31.9686C8.18122 31.4987 8.18122 31.4559 8.62267 31.4559C8.82203 31.4559 9.03563 31.5699 9.12107 31.7265Z" fill="url(#paint0_linear_747_385)"/>
<path d="M6.70052 15.977C6.27332 16.1906 6.17364 16.6748 6.48692 16.988C6.70052 17.2016 7.25588 17.2159 11.7273 17.1874L16.7398 17.1447L16.8679 16.746C16.9819 16.4327 16.9534 16.3045 16.7683 16.1051C16.5404 15.8915 16.0563 15.8631 11.7842 15.8203C8.16725 15.7919 6.97108 15.8346 6.70052 15.977Z" fill="url(#paint1_linear_747_385)"/>
<path d="M6.54496 20.3345C6.26016 20.5623 6.23168 20.662 6.3456 21.0038L6.488 21.4167H16.2425H25.9969L26.1393 21.0038C26.2532 20.662 26.2248 20.5623 25.94 20.3345C25.6267 20.0782 25.228 20.0639 16.2425 20.0639C7.25697 20.0639 6.85825 20.0782 6.54496 20.3345Z" fill="url(#paint2_linear_747_385)"/>
<path d="M6.54496 24.6065C6.26016 24.8343 6.23168 24.934 6.3456 25.2758L6.488 25.6887H16.2425H25.9969L26.1393 25.2758C26.2532 24.934 26.2248 24.8343 25.94 24.6065C25.6267 24.3502 25.228 24.3359 16.2425 24.3359C7.25697 24.3359 6.85825 24.3502 6.54496 24.6065Z" fill="url(#paint3_linear_747_385)"/>
<defs>
<linearGradient id="paint0_linear_747_385" x1="3.45646" y1="-1.77986" x2="48.3904" y2="41.3107" gradientUnits="userSpaceOnUse">
<stop stop-color="#2563EB"/>
<stop offset="0.504808" stop-color="#2FBAF8"/>
<stop offset="1" stop-color="#34E5FF"/>
</linearGradient>
<linearGradient id="paint1_linear_747_385" x1="7.16953" y1="15.7139" x2="7.63213" y2="18.8414" gradientUnits="userSpaceOnUse">
<stop stop-color="#2563EB"/>
<stop offset="0.504808" stop-color="#2FBAF8"/>
<stop offset="1" stop-color="#34E5FF"/>
</linearGradient>
<linearGradient id="paint2_linear_747_385" x1="7.90533" y1="19.9682" x2="8.14416" y2="23.0684" gradientUnits="userSpaceOnUse">
<stop stop-color="#2563EB"/>
<stop offset="0.504808" stop-color="#2FBAF8"/>
<stop offset="1" stop-color="#34E5FF"/>
</linearGradient>
<linearGradient id="paint3_linear_747_385" x1="7.90533" y1="24.2401" x2="8.14416" y2="27.3403" gradientUnits="userSpaceOnUse">
<stop stop-color="#2563EB"/>
<stop offset="0.504808" stop-color="#2FBAF8"/>
<stop offset="1" stop-color="#34E5FF"/>
</linearGradient>
</defs>
</svg>
