<svg width="37" height="40" viewBox="0 0 37 40" fill="none" xmlns="http://www.w3.org/2000/svg">
<path d="M1.89397 1.19986C1.21004 1.59443 0.76285 2.06793 0.328815 2.90969C0.131526 3.29112 0.0789155 3.75146 0.0394578 5.57967C-0.0131526 7.93398 0.0394578 8.17073 0.605019 8.17073C0.76285 8.17073 0.960139 8.09181 1.03905 7.99974C1.11797 7.90768 1.19689 6.92123 1.22319 5.65858C1.26265 3.55417 1.2758 3.4621 1.61777 2.94915C1.82821 2.63349 2.19648 2.30468 2.53845 2.13369C3.11716 1.85749 3.22238 1.85749 11.9689 1.85749C20.5312 1.85749 20.8206 1.87064 21.3203 2.12054C21.5966 2.26522 21.9911 2.58088 22.1753 2.84393C22.5435 3.31742 22.5961 3.55417 22.6882 5.56652L22.7408 6.85547H22.2936H21.8465V5.36923C21.8465 2.94915 21.5045 2.64664 18.703 2.64664C17.6771 2.64664 16.8616 2.71241 16.6512 2.80447C16.4144 2.90969 16.2434 3.17274 16.0462 3.72515L15.7568 4.488H11.9294H8.102L7.83894 3.73831C7.48382 2.71241 7.32599 2.64664 5.14266 2.64664C3.19608 2.64664 2.7752 2.77817 2.28855 3.52787C2.06496 3.86983 2.0518 4.69844 2.0518 20.4026C2.0518 36.1068 2.06496 36.9354 2.28855 37.2774C2.42008 37.4879 2.70943 37.7641 2.94618 37.8956C3.35391 38.1455 3.66957 38.1586 11.8899 38.1586C21.2809 38.1586 21.0704 38.1718 21.5834 37.3432C21.7938 36.9881 21.8465 36.6855 21.8465 35.6465C21.8465 34.3575 21.7544 34.0813 21.3072 34.0813C20.8074 34.0813 20.6627 34.4365 20.6627 35.6596C20.6627 36.5935 20.6233 36.8302 20.4523 36.896C20.3339 36.9354 16.4802 36.9749 11.8636 36.9749C5.52409 36.9749 3.44598 36.9354 3.32761 36.8171C3.10401 36.5935 3.10401 4.2118 3.32761 3.9882C3.43283 3.88298 4.01154 3.83038 5.09005 3.83038H6.69467L6.90511 4.44855C7.29969 5.60598 6.97087 5.54021 11.9426 5.54021C16.9142 5.54021 16.6906 5.59282 17.0063 4.42224L17.1641 3.83038H18.703C19.5579 3.83038 20.3339 3.86983 20.4523 3.90929C20.6233 3.97505 20.6627 4.23811 20.6627 5.42184V6.84232L13.5998 6.88177C6.76043 6.92123 6.51053 6.93439 6.16856 7.18428C5.97128 7.32896 5.68192 7.69724 5.53724 7.9866C5.27419 8.5127 5.27419 8.70999 5.30049 16.8251C5.33995 24.9666 5.33995 25.1244 5.61616 25.4795C5.76083 25.6768 6.05019 25.9662 6.24748 26.1109C6.6026 26.3871 6.77358 26.3871 13.6392 26.4265L20.6627 26.466V29.3201C20.6627 32.332 20.689 32.503 21.2546 32.503C21.8201 32.503 21.8465 32.332 21.8465 29.3201V26.4528H22.2805H22.7014L22.6751 31.4771C22.6619 34.2523 22.6225 36.7382 22.583 37.0144C22.5172 37.6457 21.978 38.3559 21.3203 38.6847C20.8206 38.9346 20.5312 38.9478 11.9689 38.9478C3.22238 38.9478 3.11716 38.9478 2.53845 38.6716C2.19648 38.5006 1.82821 38.1718 1.61777 37.8561L1.26265 37.3169L1.19689 23.7171L1.13112 10.1042L0.854918 9.92002C0.605019 9.76219 0.539256 9.77535 0.289357 9.97264L0 10.2094L0.0394578 23.8223C0.0789155 36.8171 0.0920681 37.4615 0.328815 37.8956C0.999597 39.1451 2.10441 40 3.09086 40C3.59066 40 3.60381 40 3.36706 39.7369C3.13032 39.4739 3.14347 39.4739 11.982 39.4739C20.8206 39.4739 20.8337 39.4739 20.597 39.7369C20.3602 40 20.3734 40 20.7811 40C21.6886 40 22.9118 39.1319 23.4642 38.106C23.7404 37.5799 23.7536 37.4352 23.793 32.0164L23.8325 26.466L29.2645 26.4265L34.6965 26.3871L35.1569 26.0319C36.0776 25.3217 36.0644 25.519 36.0249 16.3648C35.9855 8.30226 35.9855 8.18388 35.7093 7.81561C35.5646 7.61832 35.2358 7.31581 34.999 7.14483C34.5782 6.86862 34.4466 6.85547 32.5921 6.88177C30.8823 6.92123 30.6061 6.94754 30.4746 7.15798C30.3693 7.31581 30.3693 7.44734 30.4746 7.61832C30.5929 7.80246 30.8954 7.85507 32.4869 7.90768C34.2625 7.97344 34.3809 7.9866 34.6176 8.2891C34.8544 8.57846 34.8675 8.92043 34.8675 16.6673C34.8675 24.572 34.8675 24.743 34.6045 25.006C34.3414 25.2691 34.1704 25.2691 20.6627 25.2691C7.15501 25.2691 6.98403 25.2691 6.72097 25.006C6.53684 24.8219 6.45792 24.572 6.45792 24.1511V23.5724L9.98282 23.533L13.5209 23.4935L14.0601 23.1252C15.1781 22.3887 15.5069 20.7709 14.7572 19.6003C14.0996 18.5481 13.8891 18.4955 9.91705 18.4561L6.45792 18.4166V13.4449C6.45792 8.56531 6.45792 8.47324 6.73413 8.22334C6.99718 7.9866 7.43121 7.97344 17.8875 7.90768L28.7516 7.84192V7.38157V6.92123L26.292 6.88177L23.8456 6.85547L23.793 5.04041C23.7536 3.51471 23.701 3.15959 23.4642 2.71241C23.0959 2.02847 22.3068 1.26562 21.6886 1.00257C21.0836 0.75267 20.1366 0.726364 20.3734 0.963112C20.4654 1.05518 20.5312 1.17355 20.5312 1.22616C20.5312 1.27877 16.6512 1.33138 11.9162 1.33138C7.18131 1.33138 3.3013 1.27877 3.3013 1.22616C3.3013 1.17355 3.36706 1.05518 3.45913 0.963112C3.5775 0.844738 3.49859 0.805279 3.10401 0.805279C2.76204 0.805279 2.32801 0.949959 1.89397 1.19986ZM21.7149 7.27635C21.7149 7.32896 21.5045 7.38157 21.2546 7.38157C20.7416 7.38157 20.7022 7.31581 21.0178 6.96069C21.2151 6.7371 21.2414 6.7371 21.4782 6.93439C21.6097 7.06591 21.7149 7.21059 21.7149 7.27635ZM23.6089 7.05276L23.8193 7.38157H23.2932C22.7145 7.38157 22.6619 7.31581 22.9907 6.96069C23.2669 6.64503 23.359 6.65818 23.6089 7.05276ZM6.26063 18.6928C6.49738 18.9559 6.49738 18.969 6.15541 19.3241L5.80029 19.6792V19.0479C5.80029 18.364 5.90551 18.2982 6.26063 18.6928ZM13.6129 19.9949C13.7971 20.1659 13.9812 20.5079 14.0338 20.7446C14.139 21.297 13.7839 22.0467 13.3236 22.2309C13.1131 22.3098 11.6137 22.3887 9.70661 22.4018L6.45792 22.4413V20.9945V19.5477L9.86444 19.6135C13.2447 19.6792 13.2841 19.6792 13.6129 19.9949ZM6.26063 22.7701C6.49738 23.0332 6.49738 23.0463 6.15541 23.4014L5.80029 23.7565V23.1252C5.80029 22.4413 5.90551 22.3755 6.26063 22.7701ZM21.6623 25.9399C21.7018 26.0188 21.636 26.2029 21.4913 26.3345C21.2414 26.5844 21.2414 26.5844 21.0047 26.3345C20.8732 26.1898 20.8074 26.0056 20.86 25.9399C20.9652 25.7557 21.5439 25.7557 21.6623 25.9399ZM23.6484 25.9004C23.7536 25.9662 23.7141 26.0846 23.53 26.3213L23.2669 26.637L23.0302 26.3213C22.846 26.0846 22.8329 25.9662 22.9381 25.9004C23.1354 25.7689 23.4511 25.7689 23.6484 25.9004Z" fill="url(#paint0_linear_747_420)"/>
<path d="M9.53595 9.84108C9.37812 9.86738 9.14137 10.0121 9.00985 10.1699C8.78625 10.4066 8.75995 10.6697 8.75995 12.3927C8.75995 15.1153 8.5232 14.9443 12.1796 14.9443C15.7834 14.9443 15.5861 15.089 15.6388 12.6031C15.6782 10.6565 15.5072 10.0384 14.8759 9.86738C14.5208 9.77531 9.99629 9.74901 9.53595 9.84108ZM14.4813 12.3795V13.8263H12.1796H9.87792V12.3795V10.9327H12.1796H14.4813V12.3795Z" fill="url(#paint1_linear_747_420)"/>
<path d="M19.5711 11.4852C19.3475 11.8535 19.3738 12.8136 19.5974 13.0898C19.8079 13.3397 20.1499 13.366 20.3734 13.1424C20.4655 13.0504 20.5313 12.6558 20.5313 12.2481C20.5313 11.8403 20.4655 11.4458 20.3734 11.3537C20.1235 11.1038 19.7684 11.1695 19.5711 11.4852Z" fill="url(#paint2_linear_747_420)"/>
<path d="M22.5838 11.4063C22.1366 11.8404 22.3997 13.3003 22.9126 13.3003C22.9915 13.3003 23.1625 13.2345 23.3072 13.1688C23.5045 13.0504 23.5571 12.8794 23.5571 12.2744C23.5571 11.8535 23.4913 11.4458 23.3993 11.3537C23.1757 11.1301 22.8205 11.1564 22.5838 11.4063Z" fill="url(#paint3_linear_747_420)"/>
<path d="M24.7662 11.3537C24.6742 11.4458 24.6084 11.8404 24.6084 12.2481C24.6084 12.9978 24.7531 13.3003 25.1345 13.3003C25.5291 13.3003 25.7921 12.8531 25.7921 12.2086C25.7921 11.3669 25.2266 10.8934 24.7662 11.3537Z" fill="url(#paint4_linear_747_420)"/>
<path d="M29.107 11.3537C29.015 11.4457 28.9492 11.8535 28.9492 12.2743C28.9492 12.8794 29.0018 13.0503 29.1991 13.1687C29.791 13.4712 30.133 13.1293 30.133 12.248C30.133 11.5773 29.9094 11.1958 29.4885 11.1958C29.3701 11.1958 29.1991 11.2616 29.107 11.3537Z" fill="url(#paint5_linear_747_420)"/>
<path d="M31.1987 11.38C30.9488 11.6693 31.0672 13.0372 31.3565 13.2213C31.7774 13.4844 32.0404 13.1687 32.0799 12.327C32.1194 11.5247 31.9747 11.1958 31.5801 11.1958C31.4486 11.1958 31.2776 11.2748 31.1987 11.38Z" fill="url(#paint6_linear_747_420)"/>
<path d="M21.6626 18.3771C21.4916 18.5481 21.4521 18.9821 21.4521 21.0471C21.4521 23.5855 21.5048 23.8223 21.9914 23.8223C22.4386 23.8223 22.6359 23.454 22.6359 22.6517V21.8757L23.3856 21.8231C24.0301 21.7705 24.1879 21.6915 24.5562 21.2838C24.8061 21.0208 25.0297 20.6525 25.0823 20.4684C25.3059 19.6003 24.7008 18.5349 23.8459 18.2982C23.0831 18.0877 21.8993 18.1272 21.6626 18.3771ZM22.5044 18.9427C22.5044 19.0084 22.4254 19.1268 22.3202 19.2057C22.1098 19.3767 21.8993 19.1794 22.044 18.9558C22.1492 18.798 22.5044 18.7848 22.5044 18.9427ZM23.7012 19.4819C23.9906 19.6397 24.0432 20.2974 23.7933 20.4947C23.7012 20.5736 23.3987 20.6656 23.1357 20.7051L22.6359 20.784V20.0606C22.6359 19.3504 22.6359 19.3504 23.0436 19.3504C23.2672 19.3504 23.5566 19.4161 23.7012 19.4819ZM22.4386 21.0602C22.6622 21.3101 22.6622 21.3364 22.4386 21.5863C22.0835 21.9678 21.9783 21.9151 21.9783 21.3233C21.9783 20.7314 22.0835 20.6788 22.4386 21.0602Z" fill="url(#paint7_linear_747_420)"/>
<path d="M26.674 18.3245C26.3978 18.5481 24.7142 22.9411 24.7668 23.3225C24.8194 23.6644 25.1614 23.888 25.4508 23.7828C25.5823 23.7302 25.7664 23.4672 25.8716 23.2041L26.0689 22.7043L27.0028 22.7306C27.9235 22.7438 27.9498 22.7569 28.147 23.1778C28.4233 23.7302 28.7389 23.9407 29.0546 23.7434C29.173 23.6644 29.2913 23.5066 29.3176 23.3882C29.3834 23.0726 27.6604 18.5218 27.4105 18.3245C27.2921 18.2456 27.1211 18.1667 27.0422 18.1667C26.9633 18.1667 26.7923 18.2456 26.674 18.3245ZM27.4237 19.4819C27.713 20.1922 27.6867 20.3105 27.3316 20.0738C27.0554 19.9028 27.0028 19.9028 26.7397 20.0869C26.3846 20.3368 26.3583 20.1396 26.6477 19.4293C26.9107 18.8111 27.1606 18.8243 27.4237 19.4819ZM27.4894 21.4154C27.5026 21.5337 27.3184 21.5863 26.9896 21.5863H26.4635L26.6345 21.1523C26.7266 20.9287 26.8449 20.613 26.9107 20.4684C26.9896 20.2316 27.0291 20.2711 27.2395 20.7314C27.371 21.0208 27.4894 21.3364 27.4894 21.4154ZM26.1084 22.2703C25.8322 22.4018 25.5954 22.4807 25.5691 22.4544C25.5428 22.4281 25.6086 22.1782 25.727 21.902L25.9243 21.4154L26.2531 21.7179L26.595 22.0335L26.1084 22.2703ZM28.3706 22.0204C28.4627 22.2834 28.5153 22.507 28.489 22.507C28.4627 22.507 28.226 22.4149 27.9761 22.2834C27.5289 22.073 27.5289 22.0598 27.7393 21.7705C28.0287 21.3759 28.1734 21.4285 28.3706 22.0204Z" fill="url(#paint8_linear_747_420)"/>
<path d="M29.1076 18.3245C28.8183 18.6138 28.9366 19.0084 29.6732 20.1001L30.3834 21.1654L30.4229 22.3886C30.4492 23.3751 30.5018 23.625 30.6991 23.7434C30.8569 23.8486 30.9884 23.8486 31.1594 23.7434C31.3436 23.625 31.3962 23.3751 31.4225 22.3886L31.4619 21.1917L32.1722 20.0738C32.9745 18.8243 33.0534 18.4955 32.5668 18.2719C32.159 18.0877 31.9486 18.2587 31.383 19.2057C31.1594 19.574 30.9621 19.8765 30.9227 19.8765C30.8832 19.8633 30.6202 19.4951 30.3308 19.0479C29.8047 18.2193 29.4364 17.9957 29.1076 18.3245ZM30.6333 20.1658C30.7517 20.2842 30.8701 20.2842 31.12 20.1658C31.3041 20.0869 31.4488 20.0343 31.4488 20.0738C31.4488 20.2053 31.0016 21.0602 30.9358 21.0602C30.8964 21.0602 30.7254 20.8235 30.5544 20.5341C30.265 20.0343 30.3045 19.837 30.6333 20.1658Z" fill="url(#paint9_linear_747_420)"/>
<path d="M7.76108 29.1228C6.36691 30.0435 6.48528 32.1742 7.95837 32.8844C8.47132 33.1475 8.74753 33.1606 11.9305 33.1606C14.9687 33.1606 15.3896 33.1343 15.8762 32.9107C17.4282 32.2005 17.5335 29.9251 16.0604 29.0965C15.5869 28.8334 15.3896 28.8203 11.891 28.8203C8.28719 28.8203 8.19512 28.8203 7.76108 29.1228ZM15.4027 30.0435C15.8762 30.2802 16.0998 30.8063 15.9288 31.2667C15.6658 31.9638 15.6 31.9638 11.891 31.9769H8.44502L8.18197 31.6349C7.72163 31.0431 7.85315 30.3723 8.49763 30.0303C8.89221 29.8067 14.9687 29.8199 15.4027 30.0435Z" fill="url(#paint10_linear_747_420)"/>
<defs>
<linearGradient id="paint0_linear_747_420" x1="-9.4004" y1="-3.24429" x2="45.5105" y2="49.1126" gradientUnits="userSpaceOnUse">
<stop stop-color="#2563EB"/>
<stop offset="0.504808" stop-color="#2FBAF8"/>
<stop offset="1" stop-color="#34E5FF"/>
</linearGradient>
<linearGradient id="paint1_linear_747_420" x1="6.96033" y1="9.25123" x2="13.8346" y2="18.7626" gradientUnits="userSpaceOnUse">
<stop stop-color="#2563EB"/>
<stop offset="0.504808" stop-color="#2FBAF8"/>
<stop offset="1" stop-color="#34E5FF"/>
</linearGradient>
<linearGradient id="paint2_linear_747_420" x1="19.1251" y1="10.9849" x2="21.6108" y2="12.358" gradientUnits="userSpaceOnUse">
<stop stop-color="#2563EB"/>
<stop offset="0.504808" stop-color="#2FBAF8"/>
<stop offset="1" stop-color="#34E5FF"/>
</linearGradient>
<linearGradient id="paint3_linear_747_420" x1="22.042" y1="10.9847" x2="24.6264" y2="12.5191" gradientUnits="userSpaceOnUse">
<stop stop-color="#2563EB"/>
<stop offset="0.504808" stop-color="#2FBAF8"/>
<stop offset="1" stop-color="#34E5FF"/>
</linearGradient>
<linearGradient id="paint4_linear_747_420" x1="24.2996" y1="10.9546" x2="26.8821" y2="12.4456" gradientUnits="userSpaceOnUse">
<stop stop-color="#2563EB"/>
<stop offset="0.504808" stop-color="#2FBAF8"/>
<stop offset="1" stop-color="#34E5FF"/>
</linearGradient>
<linearGradient id="paint5_linear_747_420" x1="28.6404" y1="10.9812" x2="31.1946" y2="12.4882" gradientUnits="userSpaceOnUse">
<stop stop-color="#2563EB"/>
<stop offset="0.504808" stop-color="#2FBAF8"/>
<stop offset="1" stop-color="#34E5FF"/>
</linearGradient>
<linearGradient id="paint6_linear_747_420" x1="30.7955" y1="10.9776" x2="33.1743" y2="12.1712" gradientUnits="userSpaceOnUse">
<stop stop-color="#2563EB"/>
<stop offset="0.504808" stop-color="#2FBAF8"/>
<stop offset="1" stop-color="#34E5FF"/>
</linearGradient>
<linearGradient id="paint7_linear_747_420" x1="20.4931" y1="17.5783" x2="27.8495" y2="22.5347" gradientUnits="userSpaceOnUse">
<stop stop-color="#2563EB"/>
<stop offset="0.504808" stop-color="#2FBAF8"/>
<stop offset="1" stop-color="#34E5FF"/>
</linearGradient>
<linearGradient id="paint8_linear_747_420" x1="23.5778" y1="17.5839" x2="31.3747" y2="24.1025" gradientUnits="userSpaceOnUse">
<stop stop-color="#2563EB"/>
<stop offset="0.504808" stop-color="#2FBAF8"/>
<stop offset="1" stop-color="#34E5FF"/>
</linearGradient>
<linearGradient id="paint9_linear_747_420" x1="27.9427" y1="17.5969" x2="35.4417" y2="22.982" gradientUnits="userSpaceOnUse">
<stop stop-color="#2563EB"/>
<stop offset="0.504808" stop-color="#2FBAF8"/>
<stop offset="1" stop-color="#34E5FF"/>
</linearGradient>
<linearGradient id="paint10_linear_747_420" x1="4.08828" y1="28.3726" x2="8.32646" y2="38.8281" gradientUnits="userSpaceOnUse">
<stop stop-color="#2563EB"/>
<stop offset="0.504808" stop-color="#2FBAF8"/>
<stop offset="1" stop-color="#34E5FF"/>
</linearGradient>
</defs>
</svg>
