<svg width="43" height="37" viewBox="0 0 43 37" fill="none" xmlns="http://www.w3.org/2000/svg">
<path d="M1.20067 1.03645C0.579146 1.30484 0 2.03936 0 2.56201C0 2.98577 0 2.9999 0.28251 2.74564C0.56502 2.49138 0.56502 2.50551 0.56502 5.38711C0.56502 8.09921 0.579146 8.29696 0.847531 8.5371C1.00291 8.67835 1.13004 8.86199 1.13004 8.96087C1.13004 9.05974 1.00291 9.24337 0.847531 9.38463C0.56502 9.63889 0.56502 9.82252 0.56502 21.1512C0.56502 32.6493 0.56502 32.6635 0.28251 32.4092C0 32.155 0 32.1691 0 32.5787C0 33.398 0.932284 34.1749 1.90694 34.1749H2.40134V35.0931C2.40134 35.8982 2.44371 36.0536 2.81098 36.4632L3.22062 36.9294L9.6336 36.9717C14.0266 37 16.202 36.9717 16.5692 36.8587C17.3037 36.6469 17.6569 36.0395 17.6569 34.9801V34.1749H18.575H19.4932V35.0931C19.4932 35.8982 19.5356 36.0536 19.9028 36.4632L20.3125 36.9294L27.1069 36.9717C31.7118 37 34.0001 36.9576 34.1837 36.8587C34.4945 36.6892 34.5651 36.1666 34.2967 35.8982C34.1696 35.7711 32.4604 35.7287 27.4459 35.7287H20.7645V31.3498V26.9709L29.6353 26.9991L38.492 27.0415V31.3498V35.6581L37.5032 35.7005C36.4297 35.7428 36.1613 35.8841 36.1613 36.3785C36.1613 36.8305 36.5427 37 37.5456 37C39.2265 37 39.6927 36.5762 39.6927 35.0931V34.1749H40.1871C41.1617 34.1749 42.094 33.398 42.094 32.5787C42.094 32.2397 42.0516 32.1832 41.9245 32.3103C41.8256 32.4092 41.6985 32.4798 41.642 32.4798C41.5855 32.4798 41.529 27.3382 41.529 21.0664C41.529 9.82252 41.529 9.63889 41.2465 9.38463C40.8934 9.05974 40.8934 8.86199 41.2465 8.5371C41.5149 8.29696 41.529 8.09921 41.529 5.38711V2.49138L41.868 2.80214L42.207 3.1129L42.094 2.53376C41.9669 1.86986 41.5149 1.30484 40.8651 1.03645C40.4837 0.866947 37.588 0.838696 24.0416 0.838696C7.83966 0.838696 7.67015 0.838696 7.41589 1.12121C7.20401 1.36134 7.18988 1.46022 7.31701 1.75686L7.48652 2.10999H23.9851C39.8057 2.10999 40.512 2.12412 40.7238 2.36425C40.9357 2.59026 40.964 3.02815 40.964 5.47186V8.32522H21.047H1.13004V5.45774C1.13004 2.84452 1.15829 2.56201 1.3843 2.35012C1.59618 2.15237 1.96345 2.10999 3.44662 2.10999C5.21231 2.10999 5.24056 2.10999 5.39595 1.75686C5.52307 1.46022 5.50895 1.36134 5.29707 1.12121C5.07106 0.866947 4.8733 0.838696 3.33362 0.838696C2.23183 0.852821 1.46905 0.92345 1.20067 1.03645ZM40.964 21.0382C40.964 32.2962 40.964 32.4798 40.6815 32.7623C40.5261 32.9177 40.2436 33.0449 40.0458 33.0449H39.6927V29.8525V26.6601L39.283 26.2505L38.8734 25.8408H29.5929H20.3125L19.9028 26.2505L19.4932 26.6601V29.8525V33.0449H18.575H17.6569V22.592C17.6569 11.0938 17.6851 11.5317 16.8094 11.0797C16.4421 10.8819 15.5098 10.8678 9.8031 10.8961L3.22062 10.9384L2.81098 11.4046L2.40134 11.8566V22.4507V33.0449H2.0482C1.85044 33.0449 1.56793 32.9177 1.41255 32.7623C1.13004 32.4798 1.13004 32.2962 1.13004 21.0382V9.59651H21.047H40.964V21.0382ZM16.3856 23.9339V35.7287L10.0009 35.7005L3.60201 35.6581L3.55963 24.0752C3.5455 17.7046 3.55963 12.4075 3.60201 12.3086C3.64438 12.1815 5.07106 12.1391 10.0291 12.1391H16.3856V23.9339ZM2.96636 33.6099C2.96636 34.2455 2.85335 34.302 2.47196 33.8924C2.23183 33.624 2.23183 33.5958 2.47196 33.3274C2.85335 32.9177 2.96636 32.9742 2.96636 33.6099ZM17.445 33.8924C17.0777 34.2879 16.9506 34.2455 16.9506 33.7088C16.9506 33.0872 17.0919 32.9742 17.4309 33.3132C17.6993 33.5958 17.6993 33.6099 17.445 33.8924ZM20.0582 33.6099C20.0582 34.1466 20.0441 34.1608 19.7757 34.0054C19.4226 33.7794 19.4085 33.4827 19.7475 33.2426C19.8746 33.1437 20.0017 33.0449 20.03 33.0449C20.0441 33.0449 20.0582 33.2991 20.0582 33.6099ZM39.6221 33.3274C39.8622 33.5958 39.8622 33.624 39.6221 33.8924C39.2407 34.302 39.1277 34.2455 39.1277 33.6099C39.1277 32.9742 39.2407 32.9177 39.6221 33.3274Z" fill="url(#paint0_linear_747_401)"/>
<path d="M20.2418 11.1363C20.0017 11.2916 19.7192 11.5459 19.6485 11.7013C19.5497 11.8849 19.4932 13.919 19.4932 17.6481V23.3266L19.9734 23.8068L20.4537 24.2871H29.5223C35.9211 24.2871 38.6756 24.2447 38.8875 24.1317C39.7068 23.708 39.6926 23.8775 39.6926 17.6199V11.8567L39.283 11.4046L38.8734 10.9385L29.7765 10.8961C20.9763 10.8679 20.6797 10.8679 20.2418 11.1363ZM38.492 17.5775V22.9452L29.6353 22.9876L20.7645 23.0158V17.5775V12.1392L29.6353 12.1674L38.492 12.2098V17.5775Z" fill="url(#paint1_linear_747_401)"/>
<path d="M22.8129 14.6817C22.6011 14.9219 22.5869 15.0208 22.7141 15.3174L22.8836 15.6705H25.0024H27.1212L27.2907 15.3033C27.4461 14.9784 27.432 14.8936 27.1354 14.6676C26.8528 14.4416 26.5562 14.3992 24.9318 14.3992C23.2508 14.3992 23.039 14.4275 22.8129 14.6817Z" fill="url(#paint2_linear_747_401)"/>
<path d="M31.4574 14.6816L31.076 14.9783V17.5209C31.076 20.8545 30.8359 20.6144 34.1837 20.6144C37.5314 20.6144 37.2913 20.8404 37.2913 17.5915C37.2913 14.2579 37.5032 14.4839 34.2967 14.4274C31.966 14.385 31.8247 14.3991 31.4574 14.6816ZM32.2061 15.2325C32.2061 15.3879 31.7964 15.7269 31.7117 15.6422C31.5704 15.515 31.8106 15.1054 32.0083 15.1054C32.1213 15.1054 32.2061 15.1619 32.2061 15.2325ZM36.02 17.5774V19.4984L34.1695 19.4561L32.3332 19.4137L32.305 17.535L32.2767 15.6704H34.1554H36.02V17.5774Z" fill="url(#paint3_linear_747_401)"/>
<path d="M22.7141 17.2949C22.5869 17.5915 22.6011 17.6904 22.8129 17.9305C23.0531 18.1989 23.2508 18.213 25.6663 18.213C27.1919 18.213 28.3784 18.1565 28.5479 18.0718C28.8445 17.9023 28.901 17.3655 28.6468 17.1112C28.5197 16.9841 27.6721 16.9417 25.6804 16.9417H22.8836L22.7141 17.2949Z" fill="url(#paint4_linear_747_401)"/>
<path d="M22.8691 19.5973C22.5584 19.8092 22.516 20.1906 22.7702 20.4449C22.8974 20.572 23.7449 20.6144 25.7225 20.6144C28.0108 20.6144 28.5334 20.572 28.6747 20.4025C28.8725 20.1624 28.7453 19.4843 28.4911 19.4843C24.4512 19.3996 23.0951 19.4278 22.8691 19.5973Z" fill="url(#paint5_linear_747_401)"/>
<path d="M5.53713 14.6675C5.42412 14.7382 5.36762 14.9642 5.39587 15.1902L5.43825 15.5998L8.70124 15.6422C11.5122 15.6705 11.9925 15.6422 12.1479 15.4586C12.2891 15.2891 12.2891 15.1619 12.1761 14.8936L12.0066 14.5404H8.87075C7.13331 14.5404 5.636 14.5969 5.53713 14.6675Z" fill="url(#paint6_linear_747_401)"/>
<path d="M5.53879 17.1113C5.32691 17.3232 5.32691 17.8317 5.53879 18.0436C5.66592 18.1708 6.86659 18.2131 10.059 18.2131C14.2119 18.2131 14.4096 18.199 14.5509 17.9448C14.7486 17.5634 14.7345 17.4221 14.4661 17.1678C14.2825 16.9701 13.6751 16.9418 9.9742 16.9418C6.85247 16.9418 5.66592 16.9842 5.53879 17.1113Z" fill="url(#paint7_linear_747_401)"/>
<path d="M5.53818 19.6538C5.28392 19.9081 5.34043 20.4449 5.63706 20.6144C5.80657 20.6991 7.44513 20.7556 9.98772 20.7556C13.4485 20.7556 14.1124 20.7274 14.3808 20.5296C14.7198 20.2895 14.7904 19.9222 14.522 19.6538C14.2819 19.4137 5.77832 19.4137 5.53818 19.6538Z" fill="url(#paint8_linear_747_401)"/>
<path d="M11.047 22.9027C10.7927 23.157 10.8492 23.6938 11.1459 23.8633C11.3012 23.9339 11.9793 24.0045 12.6432 24.0045C13.3071 24.0045 13.9851 23.9339 14.1405 23.8633C14.4371 23.6938 14.4936 23.157 14.2393 22.9027C14.0133 22.6767 11.273 22.6767 11.047 22.9027Z" fill="url(#paint9_linear_747_401)"/>
<path d="M5.15587 28.5953C4.80273 28.9343 4.80273 28.9767 4.80273 31.3215C4.80273 33.5251 4.83099 33.737 5.09937 34.0901L5.38188 34.4574H9.94442C13.8289 34.4574 14.5352 34.4291 14.8036 34.2314C15.1002 34.0195 15.1144 33.9489 15.1144 31.4487C15.1144 30.0361 15.0579 28.8072 15.0014 28.7224C14.7188 28.2845 14.2244 28.2422 9.88792 28.2422H5.49488L5.15587 28.5953ZM13.9843 31.378V33.2567H10.0292H6.07403V31.378V29.5135H10.0292H13.9843V31.378Z" fill="url(#paint10_linear_747_401)"/>
<path d="M23.7888 3.64967C23.1249 4.05931 22.8848 4.48307 22.8848 5.24585C22.8848 7.06804 25.3285 7.73194 26.2749 6.16401C27.2637 4.5537 25.385 2.67501 23.7888 3.64967ZM25.2579 5.17522C25.3144 5.71199 24.9047 6.02275 24.4527 5.79674C23.7888 5.44361 24.0289 4.6102 24.7635 4.68083C25.159 4.72321 25.2155 4.77971 25.2579 5.17522Z" fill="url(#paint11_linear_747_401)"/>
<path d="M28.8587 3.6779C28.5762 3.86153 28.322 4.20054 28.1666 4.59605C27.9406 5.1752 27.9406 5.25995 28.1666 5.85322C28.7881 7.44941 30.9634 7.46353 31.5708 5.85322C31.8251 5.21758 31.7403 4.61018 31.3166 4.08754C30.7374 3.35301 29.6498 3.16938 28.8587 3.6779ZM30.4408 5.21758C30.4408 5.38708 30.3137 5.62722 30.1583 5.72609C29.904 5.8956 29.8193 5.88148 29.5509 5.69784C29.3814 5.58484 29.2401 5.35883 29.2401 5.21758C29.2401 5.07632 29.3814 4.85031 29.5509 4.73731C29.8193 4.55368 29.904 4.53955 30.1583 4.70906C30.3137 4.80794 30.4408 5.04807 30.4408 5.21758Z" fill="url(#paint12_linear_747_401)"/>
<path d="M34.0848 3.66375C32.3897 4.69491 33.3079 7.2375 35.2996 7.01149C36.9805 6.82786 37.4608 4.66666 36.0341 3.70612C35.4408 3.31061 34.6922 3.28236 34.0848 3.66375ZM35.5962 4.93504C35.8929 5.47181 35.2855 6.06508 34.7346 5.78257C34.4662 5.64132 34.3532 4.94917 34.5651 4.75141C34.7769 4.53953 35.455 4.65253 35.5962 4.93504Z" fill="url(#paint13_linear_747_401)"/>
<path d="M23.0543 28.4117C22.9554 28.5105 22.8848 28.7083 22.8848 28.8778C22.8848 29.0473 22.9554 29.2451 23.0543 29.3439C23.2944 29.5841 27.1365 29.5841 27.3767 29.3439C27.6309 29.0897 27.5744 28.5529 27.2778 28.3834C26.8823 28.1715 23.2662 28.1998 23.0543 28.4117Z" fill="url(#paint14_linear_747_401)"/>
<path d="M31.4433 28.5388L31.076 28.8213V31.3639C31.076 34.6975 30.8359 34.4574 34.1837 34.4574C37.5173 34.4574 37.2913 34.6834 37.2913 31.3921C37.2913 28.9767 37.2913 28.9343 36.9381 28.5953C36.5991 28.2421 36.5567 28.2421 34.2119 28.2421C32.0083 28.2421 31.7964 28.2704 31.4433 28.5388ZM36.02 31.378V33.2567L34.1695 33.2285L32.3332 33.2143L32.305 31.3639L32.2767 29.5134H34.1554H36.02V31.378Z" fill="url(#paint15_linear_747_401)"/>
<path d="M23.0538 30.9542C22.7995 31.2085 22.8561 31.7453 23.1527 31.9148C23.5058 32.0984 28.3226 32.0984 28.6616 31.9148C29.0148 31.7311 29.1278 31.3921 28.9583 31.0531C28.817 30.7989 28.6334 30.7847 26.0202 30.7847C24.0285 30.7847 23.1809 30.8271 23.0538 30.9542Z" fill="url(#paint16_linear_747_401)"/>
<path d="M23.1374 33.3415C22.8408 33.511 22.7984 34.0336 23.0527 34.2879C23.1798 34.415 24.0274 34.4574 26.0191 34.4574C28.6323 34.4574 28.8159 34.4433 28.9572 34.189C29.1267 33.85 29.0137 33.511 28.6605 33.3274C28.3215 33.1437 23.4482 33.1579 23.1374 33.3415Z" fill="url(#paint17_linear_747_401)"/>
<defs>
<linearGradient id="paint0_linear_747_401" x1="-7.02695" y1="-8.55316" x2="44.86" y2="41.7337" gradientUnits="userSpaceOnUse">
<stop stop-color="#2563EB"/>
<stop offset="0.504808" stop-color="#2FBAF8"/>
<stop offset="1" stop-color="#34E5FF"/>
</linearGradient>
<linearGradient id="paint1_linear_747_401" x1="16.1302" y1="7.4029" x2="34.8976" y2="30.8881" gradientUnits="userSpaceOnUse">
<stop stop-color="#2563EB"/>
<stop offset="0.504808" stop-color="#2FBAF8"/>
<stop offset="1" stop-color="#34E5FF"/>
</linearGradient>
<linearGradient id="paint2_linear_747_401" x1="21.841" y1="14.0691" x2="22.9058" y2="17.3764" gradientUnits="userSpaceOnUse">
<stop stop-color="#2563EB"/>
<stop offset="0.504808" stop-color="#2FBAF8"/>
<stop offset="1" stop-color="#34E5FF"/>
</linearGradient>
<linearGradient id="paint3_linear_747_401" x1="30.0362" y1="12.797" x2="38.801" y2="20.0913" gradientUnits="userSpaceOnUse">
<stop stop-color="#2563EB"/>
<stop offset="0.504808" stop-color="#2FBAF8"/>
<stop offset="1" stop-color="#34E5FF"/>
</linearGradient>
<linearGradient id="paint4_linear_747_401" x1="21.6047" y1="16.6115" x2="22.4573" y2="20.0502" gradientUnits="userSpaceOnUse">
<stop stop-color="#2563EB"/>
<stop offset="0.504808" stop-color="#2FBAF8"/>
<stop offset="1" stop-color="#34E5FF"/>
</linearGradient>
<linearGradient id="paint5_linear_747_401" x1="21.5778" y1="19.1325" x2="22.3147" y2="22.3407" gradientUnits="userSpaceOnUse">
<stop stop-color="#2563EB"/>
<stop offset="0.504808" stop-color="#2FBAF8"/>
<stop offset="1" stop-color="#34E5FF"/>
</linearGradient>
<linearGradient id="paint6_linear_747_401" x1="4.24507" y1="14.2518" x2="4.84392" y2="17.3256" gradientUnits="userSpaceOnUse">
<stop stop-color="#2563EB"/>
<stop offset="0.504808" stop-color="#2FBAF8"/>
<stop offset="1" stop-color="#34E5FF"/>
</linearGradient>
<linearGradient id="paint7_linear_747_401" x1="3.83065" y1="16.6117" x2="4.41539" y2="20.1655" gradientUnits="userSpaceOnUse">
<stop stop-color="#2563EB"/>
<stop offset="0.504808" stop-color="#2FBAF8"/>
<stop offset="1" stop-color="#34E5FF"/>
</linearGradient>
<linearGradient id="paint8_linear_747_401" x1="3.82711" y1="19.1408" x2="4.42114" y2="22.7228" gradientUnits="userSpaceOnUse">
<stop stop-color="#2563EB"/>
<stop offset="0.504808" stop-color="#2FBAF8"/>
<stop offset="1" stop-color="#34E5FF"/>
</linearGradient>
<linearGradient id="paint9_linear_747_401" x1="10.3006" y1="22.403" x2="11.637" y2="25.471" gradientUnits="userSpaceOnUse">
<stop stop-color="#2563EB"/>
<stop offset="0.504808" stop-color="#2FBAF8"/>
<stop offset="1" stop-color="#34E5FF"/>
</linearGradient>
<linearGradient id="paint10_linear_747_401" x1="3.08598" y1="26.6279" x2="11.5694" y2="38.3148" gradientUnits="userSpaceOnUse">
<stop stop-color="#2563EB"/>
<stop offset="0.504808" stop-color="#2FBAF8"/>
<stop offset="1" stop-color="#34E5FF"/>
</linearGradient>
<linearGradient id="paint11_linear_747_401" x1="22.2746" y1="2.43059" x2="27.443" y2="6.7253" gradientUnits="userSpaceOnUse">
<stop stop-color="#2563EB"/>
<stop offset="0.504808" stop-color="#2FBAF8"/>
<stop offset="1" stop-color="#34E5FF"/>
</linearGradient>
<linearGradient id="paint12_linear_747_401" x1="27.3783" y1="2.43828" x2="32.5634" y2="6.80401" gradientUnits="userSpaceOnUse">
<stop stop-color="#2563EB"/>
<stop offset="0.504808" stop-color="#2FBAF8"/>
<stop offset="1" stop-color="#34E5FF"/>
</linearGradient>
<linearGradient id="paint13_linear_747_401" x1="32.5859" y1="2.44952" x2="37.7233" y2="6.76836" gradientUnits="userSpaceOnUse">
<stop stop-color="#2563EB"/>
<stop offset="0.504808" stop-color="#2FBAF8"/>
<stop offset="1" stop-color="#34E5FF"/>
</linearGradient>
<linearGradient id="paint14_linear_747_401" x1="22.1101" y1="27.9039" x2="23.2167" y2="31.2282" gradientUnits="userSpaceOnUse">
<stop stop-color="#2563EB"/>
<stop offset="0.504808" stop-color="#2FBAF8"/>
<stop offset="1" stop-color="#34E5FF"/>
</linearGradient>
<linearGradient id="paint15_linear_747_401" x1="30.0363" y1="26.6269" x2="38.813" y2="33.9183" gradientUnits="userSpaceOnUse">
<stop stop-color="#2563EB"/>
<stop offset="0.504808" stop-color="#2FBAF8"/>
<stop offset="1" stop-color="#34E5FF"/>
</linearGradient>
<linearGradient id="paint16_linear_747_401" x1="21.8698" y1="30.4555" x2="22.7218" y2="33.8836" gradientUnits="userSpaceOnUse">
<stop stop-color="#2563EB"/>
<stop offset="0.504808" stop-color="#2FBAF8"/>
<stop offset="1" stop-color="#34E5FF"/>
</linearGradient>
<linearGradient id="paint17_linear_747_401" x1="21.862" y1="32.869" x2="22.7047" y2="36.2812" gradientUnits="userSpaceOnUse">
<stop stop-color="#2563EB"/>
<stop offset="0.504808" stop-color="#2FBAF8"/>
<stop offset="1" stop-color="#34E5FF"/>
</linearGradient>
</defs>
</svg>
