<svg width="21" height="19" viewBox="0 0 21 19" fill="none" xmlns="http://www.w3.org/2000/svg">
<path d="M8.36543 0.0998611C4.75451 0.718992 1.75241 3.12228 0.562766 6.35109C0.142892 7.49615 0.0449219 8.07533 0.0449219 9.51332C0.0449219 10.685 0.0589177 10.8847 0.226867 11.5505C0.681731 13.3812 1.57746 14.9257 2.94905 16.2306C4.29265 17.5221 5.94415 18.3875 7.86857 18.8203C8.56837 18.98 8.7853 18.9933 10.0099 19C11.4935 19 11.9833 18.9334 13.166 18.5673C16.0491 17.6685 18.4914 15.3851 19.5201 12.6223C19.919 11.5371 20.0449 10.8115 20.0449 9.51332C20.0449 8.21514 19.919 7.48949 19.5201 6.40435C18.6803 4.1342 16.9309 2.21689 14.6495 1.0452C13.9008 0.665733 12.5852 0.239664 11.6964 0.0998611C10.8707 -0.0332851 9.14219 -0.0332851 8.36543 0.0998611ZM11.9274 0.758936C15.3143 1.48458 17.9176 3.70813 18.9672 6.77715C19.2822 7.69587 19.4081 8.48143 19.4081 9.51332C19.4011 10.9912 19.0932 12.2228 18.4004 13.541C17.9176 14.4464 17.3927 15.1188 16.56 15.891C15.4613 16.9029 14.4186 17.5088 12.956 17.9681C10.5698 18.727 8.00153 18.534 5.73422 17.4289C3.16599 16.1773 1.32554 13.8139 0.786699 11.0778C0.632746 10.2656 0.632746 8.68115 0.793697 7.89559C1.05262 6.65732 1.59846 5.4124 2.33324 4.38718C2.84408 3.6815 3.97074 2.62964 4.74751 2.137C5.89517 1.41135 7.25976 0.885424 8.54037 0.692362C9.30314 0.572531 11.2416 0.612474 11.9274 0.758936Z" fill="#A1A1A1"/>
<path d="M8.06538 1.08764C8.04828 1.13483 8.03972 1.80899 8.04828 2.58427L8.07393 4H9.65611C11.0074 4 11.281 3.97978 11.512 3.87865C12.0337 3.65618 12.2047 3.11685 11.8797 2.69888C11.7856 2.58427 11.683 2.48315 11.6488 2.48315C11.606 2.48315 11.5291 2.45618 11.4692 2.42247C11.3751 2.38202 11.4008 2.32809 11.5718 2.19326C11.8797 1.95056 11.8883 1.49213 11.5889 1.2764C11.2896 1.05393 10.8791 1.00674 9.41665 1C8.43313 1 8.09959 1.02022 8.06538 1.08764ZM10.6567 1.57978C10.8876 1.63371 10.9817 1.82247 10.8534 2.01124C10.7679 2.13258 10.6824 2.14607 9.91268 2.14607H9.05745V1.8427V1.53933H9.76729C10.1521 1.53933 10.5541 1.55955 10.6567 1.57978ZM10.939 2.82022C11.1528 2.98876 11.1528 3.09663 10.9475 3.29888C10.8021 3.44719 10.708 3.46067 9.92123 3.4809L9.05745 3.50787V3.09663V2.68539H9.91268C10.6567 2.68539 10.7936 2.70562 10.939 2.82022Z" fill="#A1A1A1"/>
<path d="M8.80057 6.45227C8.38577 7.25 8.03763 7.91818 8.04504 7.94545C8.04504 7.97955 8.23762 8 8.47466 8H8.91168L9.05242 7.70682L9.19315 7.42045L10.0228 7.4L10.8598 7.37955L11.0227 7.69318L11.1857 8H11.6153C11.8523 8 12.0449 7.98636 12.0449 7.96591C12.0449 7.94545 11.6968 7.27045 11.2746 6.46591L10.5042 5L10.0302 5.00682H9.56351L8.80057 6.45227ZM10.3042 6.275C10.4302 6.52727 10.5413 6.75909 10.5487 6.78636C10.5635 6.81364 10.3413 6.84091 10.0524 6.84091C9.7561 6.84091 9.52648 6.81364 9.52648 6.77273C9.52648 6.67727 9.99313 5.81818 10.045 5.81818C10.0672 5.81818 10.1857 6.02273 10.3042 6.275Z" fill="#A1A1A1"/>
<path d="M2.04492 9.5V11H3.25295C4.5524 11 4.73524 10.9591 4.94419 10.6455C5.06173 10.4682 5.08132 9.99091 4.97684 9.75227C4.93766 9.66364 4.82666 9.54091 4.72218 9.47955L4.53934 9.36364L4.72871 9.16591C5.08132 8.79091 4.91807 8.21818 4.40874 8.06818C4.27815 8.03409 3.69045 8 3.10929 8H2.04492V9.5ZM4.12143 8.62727C4.16714 8.675 4.19979 8.77045 4.19979 8.85227C4.19979 9.11136 4.07572 9.15909 3.40314 9.15909H2.76321V8.85227V8.54545H3.40314C3.81452 8.54545 4.06919 8.57273 4.12143 8.62727ZM4.20632 9.77273C4.3565 9.86136 4.37609 10.1955 4.22591 10.3455C4.14755 10.4341 3.97777 10.4545 3.44232 10.4545H2.76321V10.0795V9.70455H3.42273C3.78187 9.70455 4.13449 9.73864 4.20632 9.77273Z" fill="#A1A1A1"/>
<path d="M5.82753 9.47955L5.04492 10.9659L5.46521 10.9864C5.91449 11.0068 5.92173 11.0068 6.16086 10.5977L6.28405 10.3864H7.05217H7.81304L7.97246 10.6932L8.13188 11H8.5884H9.04492L8.24782 9.5L7.45072 8H7.03043H6.61014L5.82753 9.47955ZM7.52318 9.78636C7.52318 9.89545 7.45072 9.90909 7.01594 9.90909C6.74057 9.90909 6.50869 9.89545 6.50869 9.88182C6.50869 9.86818 6.62463 9.61591 6.76956 9.32273L7.03043 8.78409L7.27681 9.22727C7.40724 9.47273 7.51594 9.725 7.52318 9.78636Z" fill="#A1A1A1"/>
<path d="M8.19818 8.19048C8.28247 8.29252 8.64262 8.71429 9.01044 9.12925L9.66944 9.87755V10.4354V11H10.0909H10.5124V10.4354V9.87075L11.2786 8.98639C11.7001 8.5034 12.0449 8.08844 12.0449 8.05442C12.0449 8.02721 11.8304 8.0068 11.5622 8.0068H11.0794L10.5966 8.58503C10.3361 8.90476 10.0909 9.16327 10.0679 9.15646C10.0373 9.15646 9.80737 8.90476 9.5545 8.59864L9.09473 8.04082L8.56599 8.02041L8.04492 8L8.19818 8.19048Z" fill="#A1A1A1"/>
<path d="M12.0449 9.5V11H13.5449H15.0449V10.7273V10.4545H13.9286H12.8124V10.1136V9.77273H13.8589H14.9054V9.5V9.23409L13.8798 9.21364L12.8472 9.19318V8.88636V8.57955L13.9147 8.55909L14.9752 8.53864V8.27273V8H13.51H12.0449V9.5Z" fill="#A1A1A1"/>
<path d="M15.0449 9.5V11H15.5081H15.9712V10.4231V9.83937L16.5355 9.85973L17.1081 9.88009L17.5628 10.4367L18.0176 11H18.5565C18.9692 11 19.0786 10.9796 19.0365 10.9118C18.986 10.8439 18.5818 10.4095 18.1439 9.93439C18.0934 9.88009 18.1607 9.819 18.3797 9.73756C19.1628 9.43891 19.2218 8.49548 18.4723 8.16968C18.2449 8.06787 17.9418 8.04072 16.6281 8.02715L15.0449 8V9.5ZM17.8913 8.66516C18.1186 8.79412 18.127 8.99095 17.9081 9.16742C17.7649 9.28281 17.6302 9.30317 16.8555 9.30317H15.9712V8.92986V8.55656H16.8386C17.487 8.55656 17.7481 8.58371 17.8913 8.66516Z" fill="#A1A1A1"/>
<path d="M9.04492 13.5V15H10.5449H12.0449V14.7614V14.5227L10.9232 14.5091L9.79492 14.4886L9.77536 14.1341L9.75579 13.7795L10.8188 13.7591L11.8819 13.7386V13.5V13.2614L10.8254 13.2409L9.76231 13.2273V12.8864V12.5455L10.858 12.5318L11.9471 12.5114V12.2727V12.0341L10.4993 12.0136L9.04492 12V13.5Z" fill="#A1A1A1"/>
<path d="M9.04492 16.4961V17.9991H9.39495H9.74498V17.387V16.775H10.1459H10.5405L10.916 17.387L11.2915 17.9991H11.6988C12.1634 17.9991 12.1697 18.0535 11.6606 17.3258C11.4442 17.0198 11.336 16.809 11.3806 16.7954C11.6288 16.707 11.8833 16.4349 11.9724 16.1765C12.0552 15.9249 12.0552 15.8569 11.9724 15.6053C11.7942 15.0816 11.6924 15.0408 10.2796 15.0204L9.04492 15V16.4961ZM11.196 15.6325C11.2915 15.7345 11.2915 16.0473 11.196 16.1493C11.1451 16.2037 10.8842 16.2309 10.4323 16.2309H9.74498V15.8909V15.5509H10.4323C10.8842 15.5509 11.1451 15.5781 11.196 15.6325Z" fill="#A1A1A1"/>
</svg>
