<svg width="109" height="19" viewBox="0 0 109 19" fill="none" xmlns="http://www.w3.org/2000/svg">
<path d="M3.35488 4.71868L0.0449219 9.47912L3.39732 14.2396L6.74972 19L11.6298 18.9165L16.4674 18.833L17.6981 17.0374C18.377 16.0352 19.8623 13.989 20.9656 12.4022L23.0449 9.60439L19.7774 4.8022L16.5523 0H11.5874H6.62241L3.35488 4.71868ZM12.9453 0.835165C15.4914 0.835165 15.9158 0.96044 16.8918 1.96264C17.4859 2.58901 17.9527 3.2989 17.9527 3.46593C17.9527 3.67472 18.4619 4.46813 19.056 5.26154C20.2866 6.84835 19.9896 7.0989 18.377 5.84615C17.7829 5.38681 17.0615 5.01099 16.8069 5.01099C16.5099 5.01099 16.2553 4.84396 16.2553 4.63516C16.2553 4.21758 14.8124 3.67472 13.4545 3.59121C12.6058 3.50769 8.19252 0.96044 8.19252 0.542856C8.19252 0.417582 8.61688 0.417582 9.16854 0.584616C9.67776 0.70989 11.3752 0.835165 12.9453 0.835165ZM9.97481 2.54725C11.2054 3.25714 12.3088 3.92527 12.3512 3.96703C12.4361 4.05055 11.7147 5.17802 10.7386 6.47253L8.9988 8.81099L5.81614 8.6022C4.03385 8.51868 2.50618 8.35165 2.37887 8.22637C2.294 8.1011 2.54861 7.64176 2.97297 7.22418C3.43976 6.76483 3.69437 6.18022 3.6095 5.84615C3.48219 5.55385 3.6095 5.42857 3.82167 5.55385C4.03385 5.67912 4.41577 5.26154 4.71282 4.59341C5.22204 3.46593 7.0892 1.25275 7.51356 1.25275C7.64086 1.25275 8.74418 1.83736 9.97481 2.54725ZM18.9711 7.0989C23.4268 9.68791 23.9361 8.81099 14.4305 14.4901C7.13164 18.7912 7.21651 18.7912 5.73127 16.1187C5.34935 15.4088 5.09474 14.5736 5.13717 14.2813C5.22204 13.989 5.09474 13.7802 4.925 13.822C3.99142 13.989 3.6095 13.6967 3.7368 12.9451C3.82167 12.4857 3.69437 12.1516 3.39732 12.2352C3.10027 12.2769 2.93053 11.9011 3.0154 11.2747C3.05784 10.6484 2.97297 10.4396 2.76079 10.7319C2.50618 11.1077 2.25156 11.0659 1.6999 10.4396C1.31798 9.98022 1.14824 9.56264 1.31798 9.43736C1.48773 9.35385 3.31245 9.27033 5.34935 9.27033C8.4047 9.31209 9.16854 9.43736 9.38071 9.98022C9.76263 10.9407 11.9693 14.1143 12.4785 14.4484C13.5818 15.1165 13.1999 14.0725 11.5874 11.9011L9.80507 9.52088L11.842 6.63956C13.5818 4.09231 13.9213 3.84176 14.5154 4.3011C14.8973 4.63516 16.8918 5.88791 18.9711 7.0989ZM18.5892 14.0725C18.1648 14.6571 17.4859 15.7846 17.0191 16.578C16.2128 17.8725 16.0431 17.956 13.6667 17.956C11.2479 17.956 10.3567 17.4132 11.8844 16.8286C12.3088 16.6615 14.0486 15.7429 15.8309 14.7407C17.5708 13.7385 19.0984 12.9451 19.1833 12.9451C19.2682 12.9451 18.9711 13.4462 18.5892 14.0725Z" fill="#A1A1A1"/>
<path d="M70.3411 1.54236C69.9103 1.97527 69.9495 2.19172 70.4585 2.6607C71.32 3.49043 72.4947 2.6607 71.8682 1.65059C71.3983 0.820853 71.0067 0.784777 70.3411 1.54236Z" fill="#A1A1A1"/>
<path d="M104.188 2.14728C104.061 2.23456 104.018 4.76559 104.061 7.68938C104.188 12.8387 104.23 13.1006 105.29 14.017C106.689 15.2825 108.045 15.3261 108.045 14.1479C108.045 13.5806 107.748 13.2751 107.197 13.2751C106.053 13.2751 105.502 11.966 105.502 9.17309C105.502 6.72933 105.502 6.72933 106.773 6.72933C107.748 6.72933 108.045 6.55477 108.045 5.85656C108.045 5.15834 107.748 4.98379 106.731 4.98379C105.544 4.98379 105.459 4.89651 105.587 3.58735C105.671 2.58367 105.544 2.10364 105.078 2.01636C104.697 1.97273 104.315 2.01636 104.188 2.14728Z" fill="#A1A1A1"/>
<path d="M28.6071 5.01985C26.1278 6.76588 25.3884 9.52276 26.6498 12.1878C27.9547 14.8527 31.1734 15.7717 33.8701 14.3014C35.001 13.704 36.0449 12.3715 36.0449 11.5904C36.0449 10.9472 34.4791 11.4066 33.5656 12.3256C30.6079 15.2663 26.0408 10.9012 28.4331 7.31725C29.651 5.47933 32.9567 5.57122 34.0006 7.4551C34.3486 8.14432 36.0449 8.32811 36.0449 7.73079C36.0449 6.99562 34.6096 5.29554 33.4352 4.65226C31.6953 3.68735 30.3034 3.77925 28.6071 5.01985Z" fill="#A1A1A1"/>
<path d="M40.11 4.51031C38.5984 5.24743 37.0449 7.68914 37.0449 9.30159C37.0449 14.0468 42.5032 16.8571 45.4423 13.5861C49.473 9.20945 45.2323 2.02252 40.11 4.51031ZM44.3926 6.85988C46.5759 9.20945 45.0644 13.2175 41.9994 13.2175C40.5298 13.2175 38.7244 11.3747 38.7244 9.85443C38.7244 6.35311 42.2513 4.46424 44.3926 6.85988Z" fill="#A1A1A1"/>
<path d="M51.1283 4.3861C49.6283 4.98966 48.0449 7.31768 48.0449 8.95592C48.0449 10.7666 48.9616 12.7066 50.2116 13.612C51.4199 14.4742 54.2533 14.4742 55.4616 13.612C56.2949 13.0084 56.3783 13.0084 56.3783 13.6551C56.3783 14.5604 55.5866 16.1124 54.7533 16.7591C53.7949 17.5351 51.5866 17.4489 50.9199 16.6298C50.3366 15.8969 48.4616 15.0346 48.1699 15.3364C47.7949 15.7244 49.4616 17.7938 50.5866 18.4405C52.9616 19.6907 55.7949 18.7853 57.2116 16.328C57.9199 15.164 58.0449 14.1293 58.0449 9.64571C58.0449 4.68788 58.0033 4.3861 57.2116 4.3861C56.7533 4.3861 56.3783 4.55855 56.3783 4.77411C56.3783 5.03278 55.7116 4.90344 54.9199 4.55855C53.3366 3.86876 52.4199 3.82565 51.1283 4.3861ZM54.4199 6.15367C55.5033 6.67101 56.3783 8.17991 56.3783 9.55948C56.3783 10.9822 54.6699 12.6204 53.1283 12.6635C50.0866 12.7497 48.5449 8.99903 50.7533 6.75724C51.8366 5.59322 52.8783 5.42078 54.4199 6.15367Z" fill="#A1A1A1"/>
<path d="M61.7614 4.60495C61.0715 4.97292 60.5541 5.1109 60.5541 4.83493C60.5541 4.60495 60.2091 4.42097 59.8211 4.42097C59.1312 4.42097 59.0449 4.97292 59.0449 9.71048C59.0449 14.678 59.088 15 59.9073 15C60.7266 15 60.7697 14.724 60.6403 11.5503C60.511 8.4226 60.5541 8.05463 61.5889 6.95074C62.9687 5.47887 64.1761 5.47887 65.5559 6.95074C66.5907 8.05463 66.6339 8.4226 66.5045 11.5503C66.3751 14.724 66.4183 15 67.2375 15C68.0568 15 68.0999 14.724 68.0137 11.0904C67.8843 6.67476 67.2806 5.24889 65.2109 4.46696C63.4862 3.82302 63.1843 3.82302 61.7614 4.60495Z" fill="#A1A1A1"/>
<path d="M84.8866 4.73113C83.0074 5.6521 82.0449 7.44801 82.0449 9.98069C82.0449 11.5003 82.3199 12.145 83.6033 13.4343C84.8866 14.7237 85.4824 15 87.1783 15C88.2783 15 89.6533 14.6777 90.2033 14.2632C91.1199 13.6185 91.2116 13.6185 91.2116 14.2632C91.2116 14.6777 91.6241 15 92.1283 15C92.9991 15 93.0449 14.6777 93.0449 9.70439C93.0449 4.77718 92.9991 4.40879 92.1741 4.40879C91.6699 4.40879 91.2116 4.63903 91.1199 4.91532C91.0283 5.19162 90.4783 5.14557 89.6074 4.68508C87.8658 3.7641 86.7658 3.7641 84.8866 4.73113ZM89.8824 7.12566C90.6158 7.86244 91.2116 8.78342 91.2116 9.19786C91.2116 13.2501 85.6658 14.8619 84.1533 11.224C83.3741 9.4281 83.7408 7.8164 85.1616 6.71123C86.7658 5.42186 88.3241 5.56001 89.8824 7.12566Z" fill="#A1A1A1"/>
<path d="M96.7449 4.5871C96.1878 5.00361 95.7592 5.09617 95.7592 4.86477C95.7592 4.5871 95.3735 4.3557 94.9021 4.3557C94.0878 4.3557 94.0449 4.67966 94.0449 9.67785C94.0449 14.676 94.0878 15 94.9021 15C95.6735 15 95.7592 14.676 95.7592 11.529C95.7592 8.4283 95.8878 7.87295 96.8306 6.90108C98.0735 5.51269 99.1878 5.42013 100.516 6.6234C101.459 7.45643 101.545 7.82667 101.459 11.2514C101.331 14.7223 101.416 15 102.188 15C102.959 15 103.045 14.676 103.045 11.0662C103.045 7.45643 102.959 7.03991 101.888 5.74409C100.431 3.98546 98.1164 3.47639 96.7449 4.5871Z" fill="#A1A1A1"/>
<path d="M70.0449 10C70.0449 14.6957 70.0949 15 71.0449 15C71.9949 15 72.0449 14.6957 72.0449 10C72.0449 5.30435 71.9949 5 71.0449 5C70.0949 5 70.0449 5.30435 70.0449 10Z" fill="#A1A1A1"/>
<path d="M73.0539 5.73913C73.1762 6.3913 73.6247 6.52174 76.0302 6.52174H78.8841L76.1525 9.78261C74.644 11.5652 73.2985 13.4783 73.1762 14C72.9724 15 73.0131 15 77.0086 15C80.7595 15 81.0449 14.9565 81.0449 14.1304C81.0449 13.3913 80.7188 13.3043 78.2318 13.1739L75.3778 13.0435L78.191 9.78261C82.105 5.26087 82.0234 5 77.0086 5C73.3801 5 72.9724 5.08696 73.0539 5.73913Z" fill="#A1A1A1"/>
</svg>
