<svg width="74" height="20" viewBox="0 0 74 20" fill="none" xmlns="http://www.w3.org/2000/svg">
<path d="M27.1187 11.7879C28.1844 11.787 29.2147 11.4053 30.0238 10.7116C30.8328 10.0179 31.3673 9.05784 31.5307 8.00473C31.8755 5.80954 30.1602 3.89321 27.7299 3.89321H23.8129C23.7394 3.89227 23.6681 3.91792 23.612 3.96543C23.556 4.01295 23.519 4.07912 23.5079 4.15176L21.7622 15.2325C21.7559 15.273 21.7584 15.3143 21.7696 15.3537C21.7807 15.3932 21.8003 15.4297 21.8269 15.4608C21.8535 15.492 21.8866 15.517 21.9238 15.5342C21.9609 15.5514 22.0014 15.5603 22.0424 15.5604H24.1152C24.1885 15.5612 24.2596 15.5354 24.3155 15.4879C24.3713 15.4404 24.4082 15.3744 24.4192 15.3019L24.9328 12.0469C24.9438 11.9742 24.9806 11.908 25.0366 11.8604C25.0925 11.8128 25.1638 11.7871 25.2373 11.7879H27.1187ZM28.8534 7.90485C28.7252 8.71628 28.0981 9.31425 26.8977 9.31425H25.3624L25.8277 6.36198H27.3352C28.5771 6.36463 28.9807 7.09696 28.8534 7.90706V7.90485ZM40.5113 7.38334H38.5433C38.4698 7.38249 38.3985 7.40817 38.3425 7.45567C38.2865 7.50317 38.2495 7.56929 38.2383 7.64189L38.1747 8.05026C38.1747 8.05026 36.6468 6.38187 33.9429 7.50886C32.3917 8.15456 31.6474 9.48882 31.331 10.4655C31.331 10.4655 30.3246 13.4346 32.5994 15.0694C32.5994 15.0694 34.708 16.641 37.083 14.9722L37.0419 15.2325C37.0356 15.273 37.038 15.3144 37.0492 15.3538C37.0603 15.3933 37.0799 15.4298 37.1065 15.461C37.1331 15.4922 37.1662 15.5172 37.2034 15.5344C37.2406 15.5515 37.2811 15.5604 37.3221 15.5604H39.2893C39.3628 15.5614 39.4341 15.5357 39.4901 15.4882C39.5462 15.4407 39.5832 15.3745 39.5942 15.3019L40.7911 7.71127C40.7974 7.67079 40.7948 7.62943 40.7837 7.59001C40.7725 7.5506 40.7529 7.51406 40.7263 7.48292C40.6997 7.45177 40.6667 7.42674 40.6295 7.40956C40.5923 7.39237 40.5523 7.38343 40.5113 7.38334ZM37.6178 11.5784C37.5408 12.1073 37.2746 12.5903 36.8686 12.9378C36.4625 13.2853 35.9442 13.4738 35.4098 13.4682C35.2005 13.4706 34.9922 13.44 34.7924 13.3776C33.9438 13.1054 33.4599 12.2895 33.5991 11.4056C33.6762 10.8753 33.9435 10.3911 34.3512 10.0433C34.7589 9.69548 35.2792 9.50784 35.8151 9.51534C36.0246 9.51313 36.2332 9.54407 36.4329 9.60638C37.2784 9.87774 37.7592 10.6936 37.62 11.5784H37.6178Z" fill="#A5A5A5"/>
<path d="M55.4529 11.7879C56.5193 11.7876 57.5503 11.4062 58.3601 10.7124C59.1699 10.0187 59.7051 9.05836 59.869 8.00472C60.2133 5.80953 58.4985 3.8932 56.0673 3.8932H52.1515C52.0782 3.89246 52.007 3.91819 51.9511 3.96568C51.8951 4.01317 51.8582 4.07923 51.847 4.15175L50.096 15.2356C50.086 15.2966 50.0964 15.3593 50.1255 15.4138C50.1547 15.4684 50.201 15.5118 50.2573 15.5374C50.2945 15.5548 50.3351 15.5638 50.3762 15.5639H52.4494C52.5228 15.5647 52.5941 15.5389 52.65 15.4913C52.706 15.4437 52.7429 15.3776 52.7539 15.305L53.2679 12.05C53.2788 11.9773 53.3157 11.911 53.3716 11.8634C53.4276 11.8158 53.4989 11.79 53.5724 11.791L55.4529 11.7879ZM57.1876 7.90484C57.0595 8.71627 56.4323 9.31424 55.2315 9.31424H53.6966L54.1624 6.36197H55.67C56.911 6.36462 57.3154 7.09695 57.1876 7.90705V7.90484ZM68.8451 7.38333H66.8793C66.8059 7.38259 66.7347 7.40832 66.6788 7.45581C66.6229 7.5033 66.5859 7.56936 66.5748 7.64188L66.5103 8.05025C66.5103 8.05025 64.9829 6.38186 62.279 7.50885C60.7281 8.15455 59.9834 9.48881 59.6666 10.4655C59.6666 10.4655 58.6607 13.4346 60.935 15.0694C60.935 15.0694 63.044 16.641 65.4191 14.9722L65.378 15.2325C65.368 15.2935 65.3783 15.3562 65.4075 15.4107C65.4366 15.4653 65.483 15.5087 65.5393 15.5343C65.5764 15.552 65.6171 15.5609 65.6582 15.5609H67.6253C67.6988 15.562 67.7703 15.5363 67.8263 15.4887C67.8823 15.441 67.9191 15.3746 67.9298 15.3019L69.1271 7.71127C69.133 7.67065 69.1302 7.62925 69.1189 7.58979C69.1076 7.55032 69.0881 7.5137 69.0617 7.48233C69.0351 7.45089 69.0019 7.42571 68.9645 7.4086C68.927 7.39149 68.8863 7.38286 68.8451 7.38333ZM65.9521 11.5784C65.876 12.1077 65.61 12.5912 65.2038 12.9389C64.7975 13.2866 64.2787 13.4747 63.7441 13.4682C63.5345 13.4707 63.3258 13.4401 63.1258 13.3776C62.2768 13.1053 61.7924 12.2895 61.9316 11.4056C62.0085 10.8766 62.2746 10.3935 62.6807 10.0459C63.0867 9.69829 63.6051 9.50977 64.1396 9.51533C64.3495 9.51312 64.5581 9.54362 64.7579 9.60637C65.6122 9.87774 66.0944 10.6936 65.9543 11.5784H65.9521Z" fill="#A5A5A5"/>
<path d="M47.7335 7.57105L45.3615 11.5747L44.158 7.60066C44.1391 7.5376 44.1003 7.48234 44.0474 7.44315C43.9946 7.40396 43.9304 7.38293 43.8646 7.38322H41.7246C41.6877 7.38251 41.6512 7.39077 41.6182 7.40727C41.5852 7.42378 41.5567 7.44805 41.5352 7.47799C41.5136 7.50794 41.4996 7.54266 41.4944 7.5792C41.4893 7.61573 41.493 7.65297 41.5054 7.68773L43.6621 14.3816L41.7118 17.5363C41.6898 17.571 41.6775 17.611 41.6763 17.6521C41.6751 17.6933 41.6851 17.7339 41.7051 17.7699C41.7251 17.8058 41.7544 17.8357 41.79 17.8563C41.8255 17.877 41.866 17.8876 41.9071 17.8872H44.2128C44.2788 17.8875 44.3436 17.8707 44.4011 17.8383C44.4585 17.8059 44.5065 17.7591 44.5403 17.7025L50.5651 7.73546C50.5868 7.70068 50.5987 7.66068 50.5996 7.6197C50.6004 7.57871 50.5903 7.53824 50.5701 7.50256C50.5499 7.46687 50.5205 7.43728 50.4849 7.4169C50.4493 7.39652 50.4089 7.38611 50.368 7.38676H48.0631C47.9969 7.38599 47.9316 7.4026 47.8737 7.43493C47.8159 7.46727 47.7675 7.5142 47.7335 7.57105Z" fill="#A5A5A5"/>
<path d="M71.0585 4.1487L69.3074 15.2325C69.2974 15.2936 69.3078 15.3562 69.3369 15.4108C69.3661 15.4653 69.4124 15.5088 69.4687 15.5344C69.5059 15.5521 69.5465 15.5609 69.5876 15.5609H71.66C71.7334 15.5618 71.8048 15.5361 71.8608 15.4885C71.9167 15.4409 71.9536 15.3746 71.9645 15.3019L73.7159 4.21808C73.7225 4.1776 73.7201 4.13617 73.7089 4.0967C73.6978 4.05724 73.6782 4.02068 73.6514 3.98959C73.6247 3.95849 73.5916 3.9335 73.5544 3.91634C73.5172 3.89918 73.4767 3.89025 73.4357 3.89015H71.363C71.2896 3.8894 71.2184 3.91514 71.1625 3.96263C71.1065 4.01011 71.0696 4.07618 71.0585 4.1487Z" fill="#A5A5A5"/>
<path d="M15.8865 8.95396C15.4419 11.4886 13.374 13.4045 10.6604 13.4045H8.93766C8.58631 13.4045 8.2323 13.7297 8.17617 14.0895L7.42175 18.8781C7.378 19.1508 7.25027 19.2414 6.97405 19.2414H4.20298C3.92278 19.2414 3.85649 19.1477 3.89847 18.8715L4.21668 15.5599L0.89052 15.388C0.610761 15.388 0.509554 15.2355 0.54933 14.9562L2.81878 0.566075C2.86253 0.293388 3.03224 0.17627 3.30758 0.17627H9.06318C11.8338 0.17627 13.5866 2.04132 13.8009 4.45971C15.4494 5.57344 16.2202 7.05532 15.887 8.95352L15.8865 8.95396Z" fill="#939393"/>
<path d="M5.05975 10.1981L4.21694 15.5604L3.68394 18.9246C3.67404 18.9894 3.67823 19.0557 3.69621 19.1188C3.71419 19.1819 3.74555 19.2403 3.78815 19.2902C3.83075 19.3401 3.8836 19.3803 3.9431 19.4079C4.0026 19.4356 4.06736 19.4501 4.13297 19.4505H7.05961C7.19319 19.4503 7.32234 19.4025 7.42384 19.3157C7.52535 19.2289 7.59255 19.1087 7.61338 18.9767L8.38371 14.0887C8.40463 13.9568 8.47187 13.8367 8.57337 13.75C8.67486 13.6632 8.80396 13.6155 8.93748 13.6153H10.6602C11.9729 13.6136 13.2419 13.143 14.2383 12.2884C15.2347 11.4337 15.893 10.2512 16.0945 8.95403C16.3928 7.05053 15.4351 5.31762 13.7959 4.46155C13.7922 4.66436 13.7745 4.86666 13.7429 5.06703C13.5406 6.36351 12.882 7.54517 11.8858 8.39919C10.8896 9.2532 9.62119 9.72345 8.30902 9.72525H5.61308C5.47966 9.72529 5.35062 9.77295 5.24919 9.85963C5.14776 9.94632 5.08059 10.0664 5.05975 10.1981Z" fill="#A5A5A5"/>
<path d="M4.21665 15.5604H0.808721C0.742972 15.5601 0.678065 15.5456 0.618422 15.5179C0.558779 15.4902 0.505802 15.45 0.463103 15.4C0.420403 15.35 0.388984 15.2914 0.370986 15.2282C0.352988 15.165 0.348835 15.0986 0.35881 15.0336L2.65521 0.473777C2.67586 0.341826 2.74295 0.221585 2.8444 0.134721C2.94585 0.0478565 3.07499 8.00697e-05 3.20854 0H9.06005C11.8307 0 13.8451 2.0162 13.7978 4.4589C13.0604 4.07845 12.2414 3.88324 11.4117 3.8901H6.53338C6.39979 3.89013 6.27058 3.93782 6.169 4.02458C6.06741 4.11134 6.0001 4.23149 5.97917 4.36343L5.0599 10.1981L4.21665 15.5604Z" fill="#A5A5A5"/>
</svg>
