<svg width="20" height="20" viewBox="0 0 20 20" fill="none" xmlns="http://www.w3.org/2000/svg">
<path fill-rule="evenodd" clip-rule="evenodd" d="M17.623 0H1.82307C0.82043 0 0 0.82043 0 1.82307V17.6228C0 18.6257 0.82043 19.4459 1.82307 19.4459L17.623 19.4461C18.6256 19.4461 19.4461 18.6256 19.4461 17.623V1.82307C19.4461 0.82043 18.6256 0 17.623 0ZM13.3015 6.2173C12.6711 5.80641 12.2162 5.14854 12.0743 4.38198C12.0437 4.21649 12.0266 4.04595 12.0266 3.87152H10.0147L10.0114 11.9348C9.97759 12.8377 9.23436 13.5625 8.32351 13.5625C8.04018 13.5625 7.77376 13.4919 7.53886 13.3682C7.00059 13.0849 6.63209 12.5207 6.63209 11.8714C6.63209 10.9388 7.39087 10.18 8.32331 10.18C8.49735 10.18 8.6644 10.2088 8.8223 10.258V8.20411C8.65876 8.18174 8.49269 8.16794 8.32331 8.16794C6.28128 8.16794 4.62019 9.82921 4.62019 11.8714C4.62019 13.1242 5.24597 14.233 6.20116 14.9035C6.80263 15.3258 7.53458 15.5746 8.32351 15.5746C10.3655 15.5746 12.0266 13.9133 12.0266 11.8714V7.78252C12.8157 8.34879 13.7826 8.68248 14.8259 8.68248V6.67059C14.2641 6.67059 13.7408 6.50355 13.3015 6.2173Z" fill="#A5A5A5"/>
</svg>
