<svg width="14" height="10" viewBox="0 0 14 10" fill="none" xmlns="http://www.w3.org/2000/svg">
<path d="M11.503 3.00435C11.0747 2.00096 10.3357 1.16862 9.39942 0.634949C8.46312 0.101279 7.38115 -0.104264 6.31941 0.0498356C5.25766 0.203935 4.27473 0.70917 3.52135 1.48808C2.76796 2.26698 2.28569 3.27657 2.14848 4.36203C1.48091 4.52519 0.895298 4.93286 0.502855 5.50763C0.110412 6.08239 -0.0615329 6.78423 0.0196744 7.47986C0.100882 8.17548 0.429585 8.81645 0.943363 9.28104C1.45714 9.74562 2.12021 10.0015 2.80665 9.99999H10.5087C11.3485 9.99763 12.1594 9.68729 12.7937 9.12556C13.4279 8.56384 13.8432 7.78817 13.9637 6.94002C14.0843 6.09187 13.9021 5.22775 13.4503 4.50528C12.9986 3.7828 12.3075 3.25011 11.503 3.00435ZM10.5087 8.57085H2.80665C2.43525 8.57085 2.07906 8.42028 1.81644 8.15227C1.55382 7.88425 1.40628 7.52074 1.40628 7.14171C1.40628 6.76268 1.55382 6.39917 1.81644 6.13116C2.07906 5.86314 2.43525 5.71257 2.80665 5.71257C2.99235 5.71257 3.17045 5.63729 3.30176 5.50328C3.43307 5.36927 3.50684 5.18752 3.50684 4.998C3.50863 4.15286 3.80392 3.33574 4.34025 2.69179C4.87658 2.04784 5.61923 1.61876 6.43624 1.4808C7.25326 1.34283 8.09175 1.5049 8.80275 1.93822C9.51375 2.37154 10.0512 3.04804 10.3197 3.84754C10.3607 3.969 10.4331 4.07691 10.5293 4.15991C10.6254 4.24291 10.7416 4.29792 10.8658 4.31916C11.379 4.41581 11.8386 4.70398 12.1551 5.12753C12.4715 5.55108 12.6221 6.07969 12.5775 6.61036C12.533 7.14103 12.2964 7.63577 11.914 7.99819C11.5315 8.36061 11.0306 8.56475 10.5087 8.57085Z" fill="#272A2D"/>
</svg>
