<svg width="14" height="14" viewBox="0 0 14 14" fill="none" xmlns="http://www.w3.org/2000/svg">
<path d="M3.5 11.0833H2.33333C1.05 11.0833 0 10.0333 0 8.74992V8.16658C0 6.88325 1.05 5.83325 2.33333 5.83325H3.5C3.85 5.83325 4.08333 6.06659 4.08333 6.41659V10.4999C4.08333 10.8499 3.85 11.0833 3.5 11.0833ZM2.33333 6.99992C1.69167 6.99992 1.16667 7.52492 1.16667 8.16658V8.74992C1.16667 9.39158 1.69167 9.91658 2.33333 9.91658H2.91667V6.99992H2.33333ZM11.6667 11.0833H10.5C10.15 11.0833 9.91667 10.8499 9.91667 10.4999V6.41659C9.91667 6.06659 10.15 5.83325 10.5 5.83325H11.6667C12.95 5.83325 14 6.88325 14 8.16658V8.74992C14 10.0333 12.95 11.0833 11.6667 11.0833ZM11.0833 9.91658H11.6667C12.3083 9.91658 12.8333 9.39158 12.8333 8.74992V8.16658C12.8333 7.52492 12.3083 6.99992 11.6667 6.99992H11.0833V9.91658Z" fill="#272A2D"/>
<path d="M12.1915 7.05833H12.0748C11.7832 7 11.5498 6.70833 11.6082 6.41667C11.6082 6.24167 11.6665 6.06667 11.6665 5.83333C11.6665 3.26667 9.5665 1.16667 6.99984 1.16667C4.43317 1.16667 2.33317 3.26667 2.33317 5.83333C2.33317 6.06667 2.33317 6.24167 2.3915 6.41667C2.44984 6.70833 2.2165 7.05833 1.92484 7.05833C1.63317 7.11667 1.28317 6.88333 1.28317 6.59167C1.1665 6.35833 1.1665 6.125 1.1665 5.83333C1.1665 2.625 3.7915 0 6.99984 0C10.2082 0 12.8332 2.625 12.8332 5.83333C12.8332 6.125 12.8332 6.35833 12.7748 6.59167C12.7165 6.88333 12.4832 7.05833 12.1915 7.05833ZM6.99984 14C5.7165 14 5.24984 12.95 5.24984 12.25C5.24984 11.55 5.7165 10.5 6.99984 10.5C8.28317 10.5 8.74984 11.55 8.74984 12.25C8.74984 12.3667 8.74984 12.4833 8.6915 12.6C9.97484 12.25 10.8498 11.4333 11.3165 10.2667C11.4332 9.975 11.7832 9.8 12.0748 9.91667C12.3665 10.0333 12.5415 10.3833 12.4248 10.675C11.8415 12.1917 10.3832 14 6.99984 14ZM6.99984 11.6667C6.53317 11.6667 6.4165 12.0167 6.4165 12.25C6.4165 12.4833 6.53317 12.8333 6.99984 12.8333C7.4665 12.8333 7.58317 12.4833 7.58317 12.25C7.58317 12.0167 7.4665 11.6667 6.99984 11.6667Z" fill="#272A2D"/>
</svg>
