<svg width="14" height="17" viewBox="0 0 14 17" fill="none" xmlns="http://www.w3.org/2000/svg">
<path d="M7.71 11.5398L7.56 11.4251C7.50426 11.3889 7.44372 11.3599 7.38 11.339L7.2 11.2625C7.03782 11.2301 6.86976 11.2367 6.71092 11.2818C6.55208 11.3268 6.40744 11.4089 6.29 11.5207C6.20167 11.6136 6.13064 11.7204 6.08 11.8363C6.00432 12.0105 5.98423 12.2022 6.02226 12.3874C6.06028 12.5725 6.15472 12.7427 6.2937 12.8766C6.43267 13.0105 6.60996 13.1022 6.80326 13.1399C6.99656 13.1777 7.19722 13.16 7.38 13.0889C7.4995 13.0335 7.61052 12.9627 7.71 12.8786C7.84876 12.7441 7.94275 12.5733 7.98013 12.3878C8.0175 12.2023 7.99658 12.0104 7.92 11.8363C7.87014 11.7257 7.79889 11.6251 7.71 11.5398ZM11 0H3C2.20435 0 1.44129 0.302243 0.87868 0.840237C0.316071 1.37823 0 2.10791 0 2.86875V14.1312C0 14.8921 0.316071 15.6218 0.87868 16.1598C1.44129 16.6978 2.20435 17 3 17H11C11.7957 17 12.5587 16.6978 13.1213 16.1598C13.6839 15.6218 14 14.8921 14 14.1312V2.86875C14 2.10791 13.6839 1.37823 13.1213 0.840237C12.5587 0.302243 11.7957 0 11 0ZM12 14.1312C12 14.3849 11.8946 14.6281 11.7071 14.8074C11.5196 14.9868 11.2652 15.0875 11 15.0875H3C2.73478 15.0875 2.48043 14.9868 2.29289 14.8074C2.10536 14.6281 2 14.3849 2 14.1312V2.86875C2 2.61514 2.10536 2.37191 2.29289 2.19258C2.48043 2.01325 2.73478 1.9125 3 1.9125H11C11.2652 1.9125 11.5196 2.01325 11.7071 2.19258C11.8946 2.37191 12 2.61514 12 2.86875V14.1312Z" fill="#272A2D"/>
</svg>
