<svg width="14" height="13" viewBox="0 0 14 13" fill="none" xmlns="http://www.w3.org/2000/svg">
<path d="M3.18182 2.6C3.18182 2.25522 3.31591 1.92456 3.55459 1.68076C3.79327 1.43696 4.117 1.3 4.45455 1.3C4.62332 1.3 4.78518 1.23152 4.90452 1.10962C5.02386 0.987721 5.09091 0.822391 5.09091 0.65C5.09091 0.477609 5.02386 0.312279 4.90452 0.190381C4.78518 0.0684819 4.62332 0 4.45455 0C3.77945 0 3.132 0.273928 2.65464 0.761522C2.17727 1.24912 1.90909 1.91044 1.90909 2.6V4.55C1.90909 4.89478 1.775 5.22544 1.53632 5.46924C1.29764 5.71304 0.973912 5.85 0.636364 5.85C0.467589 5.85 0.305728 5.91848 0.186387 6.04038C0.0670452 6.16228 0 6.32761 0 6.5C0 6.67239 0.0670452 6.83772 0.186387 6.95962C0.305728 7.08152 0.467589 7.15 0.636364 7.15C0.973912 7.15 1.29764 7.28696 1.53632 7.53076C1.775 7.77456 1.90909 8.10522 1.90909 8.45V10.4C1.90909 11.0896 2.17727 11.7509 2.65464 12.2385C3.132 12.7261 3.77945 13 4.45455 13C4.62332 13 4.78518 12.9315 4.90452 12.8096C5.02386 12.6877 5.09091 12.5224 5.09091 12.35C5.09091 12.1776 5.02386 12.0123 4.90452 11.8904C4.78518 11.7685 4.62332 11.7 4.45455 11.7C4.117 11.7 3.79327 11.563 3.55459 11.3192C3.31591 11.0754 3.18182 10.7448 3.18182 10.4V8.45C3.17977 8.07985 3.10037 7.7144 2.94893 7.37812C2.79748 7.04183 2.57748 6.74245 2.30364 6.5C2.57748 6.25755 2.79748 5.95817 2.94893 5.62188C3.10037 5.2856 3.17977 4.92015 3.18182 4.55V2.6ZM13.3636 5.85C13.0261 5.85 12.7024 5.71304 12.4637 5.46924C12.225 5.22544 12.0909 4.89478 12.0909 4.55V2.6C12.0909 1.91044 11.8227 1.24912 11.3454 0.761522C10.868 0.273928 10.2206 0 9.54545 0C9.37668 0 9.21482 0.0684819 9.09548 0.190381C8.97614 0.312279 8.90909 0.477609 8.90909 0.65C8.90909 0.822391 8.97614 0.987721 9.09548 1.10962C9.21482 1.23152 9.37668 1.3 9.54545 1.3C9.883 1.3 10.2067 1.43696 10.4454 1.68076C10.6841 1.92456 10.8182 2.25522 10.8182 2.6V4.55C10.8202 4.92015 10.8996 5.2856 11.0511 5.62188C11.2025 5.95817 11.4225 6.25755 11.6964 6.5C11.4225 6.74245 11.2025 7.04183 11.0511 7.37812C10.8996 7.7144 10.8202 8.07985 10.8182 8.45V10.4C10.8182 10.7448 10.6841 11.0754 10.4454 11.3192C10.2067 11.563 9.883 11.7 9.54545 11.7C9.37668 11.7 9.21482 11.7685 9.09548 11.8904C8.97614 12.0123 8.90909 12.1776 8.90909 12.35C8.90909 12.5224 8.97614 12.6877 9.09548 12.8096C9.21482 12.9315 9.37668 13 9.54545 13C10.2206 13 10.868 12.7261 11.3454 12.2385C11.8227 11.7509 12.0909 11.0896 12.0909 10.4V8.45C12.0909 8.10522 12.225 7.77456 12.4637 7.53076C12.7024 7.28696 13.0261 7.15 13.3636 7.15C13.5324 7.15 13.6943 7.08152 13.8136 6.95962C13.933 6.83772 14 6.67239 14 6.5C14 6.32761 13.933 6.16228 13.8136 6.04038C13.6943 5.91848 13.5324 5.85 13.3636 5.85Z" fill="#272A2D"/>
</svg>
