<svg width="14" height="14" viewBox="0 0 14 14" fill="none" xmlns="http://www.w3.org/2000/svg">
<path d="M3.5 11.0834H2.33333C1.05 11.0834 0 10.0334 0 8.75004V8.16671C0 6.88337 1.05 5.83337 2.33333 5.83337H3.5C3.85 5.83337 4.08333 6.06671 4.08333 6.41671V10.5C4.08333 10.85 3.85 11.0834 3.5 11.0834ZM2.33333 7.00004C1.69167 7.00004 1.16667 7.52504 1.16667 8.16671V8.75004C1.16667 9.39171 1.69167 9.91671 2.33333 9.91671H2.91667V7.00004H2.33333ZM11.6667 11.0834H10.5C10.15 11.0834 9.91667 10.85 9.91667 10.5V6.41671C9.91667 6.06671 10.15 5.83337 10.5 5.83337H11.6667C12.95 5.83337 14 6.88337 14 8.16671V8.75004C14 10.0334 12.95 11.0834 11.6667 11.0834ZM11.0833 9.91671H11.6667C12.3083 9.91671 12.8333 9.39171 12.8333 8.75004V8.16671C12.8333 7.52504 12.3083 7.00004 11.6667 7.00004H11.0833V9.91671Z" fill="white"/>
<path d="M12.1917 7.05833H12.0751C11.7834 7 11.5501 6.70833 11.6084 6.41667C11.6084 6.24167 11.6667 6.06667 11.6667 5.83333C11.6667 3.26667 9.56675 1.16667 7.00008 1.16667C4.43341 1.16667 2.33341 3.26667 2.33341 5.83333C2.33341 6.06667 2.33341 6.24167 2.39175 6.41667C2.45008 6.70833 2.21675 7.05833 1.92508 7.05833C1.63341 7.11667 1.28341 6.88333 1.28341 6.59167C1.16675 6.35833 1.16675 6.125 1.16675 5.83333C1.16675 2.625 3.79175 0 7.00008 0C10.2084 0 12.8334 2.625 12.8334 5.83333C12.8334 6.125 12.8334 6.35833 12.7751 6.59167C12.7167 6.88333 12.4834 7.05833 12.1917 7.05833ZM7.00008 14C5.71675 14 5.25008 12.95 5.25008 12.25C5.25008 11.55 5.71675 10.5 7.00008 10.5C8.28341 10.5 8.75008 11.55 8.75008 12.25C8.75008 12.3667 8.75008 12.4833 8.69175 12.6C9.97508 12.25 10.8501 11.4333 11.3167 10.2667C11.4334 9.975 11.7834 9.8 12.0751 9.91667C12.3667 10.0333 12.5417 10.3833 12.4251 10.675C11.8417 12.1917 10.3834 14 7.00008 14ZM7.00008 11.6667C6.53341 11.6667 6.41675 12.0167 6.41675 12.25C6.41675 12.4833 6.53341 12.8333 7.00008 12.8333C7.46675 12.8333 7.58341 12.4833 7.58341 12.25C7.58341 12.0167 7.46675 11.6667 7.00008 11.6667Z" fill="white"/>
</svg>
