<svg width="14" height="14" viewBox="0 0 14 14" fill="none" xmlns="http://www.w3.org/2000/svg">
<path d="M13.9579 0.596135C13.9275 0.291502 13.6993 0.0630266 13.3951 0.0325633C9.54698 -0.27207 6.79396 1.60142 5.07522 3.9471C4.13219 3.64247 3.11312 3.74909 2.18531 4.26697C1.28791 4.76961 0.542619 5.62258 0.055897 6.65834C-0.0505735 6.90204 -0.00494326 7.17621 0.192788 7.35899C0.375308 7.54177 0.6643 7.57224 0.892451 7.45038C1.86589 6.93251 2.96102 7.03913 3.61505 7.69409L6.29202 10.3749L6.30723 10.3901C6.96127 11.0451 7.06774 12.1417 6.55059 13.1166C6.42891 13.345 6.47454 13.6344 6.64185 13.8172C6.76354 13.9391 6.91564 14 7.08295 14C7.17421 14 7.26547 13.9848 7.34152 13.9391C8.3758 13.4517 9.22757 12.6901 9.7295 11.8066C10.2619 10.8775 10.3683 9.85699 10.0489 8.89739C10.7334 8.39475 11.357 7.84641 11.8741 7.23714C13.4864 5.39411 14.186 3.15505 13.9579 0.596135ZM2.04842 5.91199C2.70245 5.27226 3.52379 4.87623 4.39076 5.02855C4.1474 5.45504 3.94967 5.88152 3.76715 6.30801C3.25001 6.01861 2.65682 5.88152 2.04842 5.91199ZM8.11723 11.9742C8.13244 11.3497 7.99555 10.7557 7.72177 10.2378C8.16286 10.055 8.58874 9.84175 8.99941 9.61328C9.15152 10.4815 8.77126 11.3192 8.11723 11.9742ZM6.90043 9.24772L4.75581 7.10006C5.83572 4.22127 8.51269 1.14447 12.7867 1.22063C12.9236 6.32324 8.72563 8.53183 6.90043 9.24772ZM10.8398 3.17029C11.0224 3.35307 11.1288 3.612 11.1288 3.87094C11.1288 4.12988 11.0224 4.38882 10.8398 4.5716C10.6573 4.75438 10.3987 4.861 10.1402 4.861C9.8816 4.861 9.62303 4.76961 9.44051 4.5716C9.25799 4.37359 9.15152 4.12988 9.15152 3.87094C9.15152 3.612 9.25799 3.35307 9.44051 3.17029C9.62303 2.98751 9.8816 2.88088 10.1402 2.88088C10.3987 2.88088 10.6573 2.98751 10.8398 3.17029ZM2.27657 9.50666C1.5769 10.2073 1.54648 11.6086 1.54648 11.8828C1.54648 12.2179 1.82026 12.4921 2.15489 12.4921H2.1701C2.48951 12.4921 3.82799 12.4464 4.51245 11.7609C4.93833 11.3345 5.02959 10.8927 5.02959 10.6033C5.02959 10.1921 4.86228 9.79606 4.54287 9.4762C3.78236 8.69938 2.82413 8.94309 2.27657 9.50666ZM3.66068 10.8927C3.50858 11.0451 3.17396 11.1517 2.82413 11.1974C2.88497 10.847 2.99144 10.5119 3.12833 10.3749C3.2348 10.2682 3.32606 10.2073 3.43253 10.2073C3.50858 10.2073 3.59984 10.253 3.6911 10.3444C3.78236 10.4358 3.82799 10.5272 3.82799 10.6033C3.81278 10.6947 3.73673 10.8166 3.66068 10.8927Z" fill="white"/>
</svg>
