<svg width="14" height="14" viewBox="0 0 14 14" fill="none" xmlns="http://www.w3.org/2000/svg">
<path fill-rule="evenodd" clip-rule="evenodd" d="M5.13337 0C3.33087 0 1.8667 1.46417 1.8667 3.26667C1.8667 5.06917 3.33087 6.53333 5.13337 6.53333C6.93587 6.53333 8.40004 5.06917 8.40004 3.26667C8.40004 1.46417 6.93587 0 5.13337 0ZM5.13337 0.933334C6.42059 0.933334 7.4667 1.97944 7.4667 3.26667C7.4667 4.55389 6.42059 5.6 5.13337 5.6C3.84614 5.6 2.80003 4.55389 2.80003 3.26667C2.80003 1.97944 3.84614 0.933334 5.13337 0.933334ZM9.80004 5.6C7.48226 5.6 5.60003 7.48222 5.60003 9.8C5.60003 12.1178 7.48226 14 9.80004 14C12.1178 14 14 12.1178 14 9.8C14 7.48222 12.1178 5.6 9.80004 5.6ZM9.80004 6.53333C11.6025 6.53333 13.0667 7.9975 13.0667 9.8C13.0667 11.6025 11.6025 13.0667 9.80004 13.0667C7.99754 13.0667 6.53337 11.6025 6.53337 9.8C6.53337 7.9975 7.99754 6.53333 9.80004 6.53333Z" fill="white"/>
<path fill-rule="evenodd" clip-rule="evenodd" d="M7.98584 10.1306L8.97556 11.1204C9.06306 11.2079 9.18167 11.2565 9.30417 11.2565C9.42862 11.2565 9.54723 11.2079 9.63473 11.1204L11.6142 9.14091C11.797 8.95813 11.797 8.66257 11.6142 8.47979C11.4333 8.29896 11.1378 8.29896 10.955 8.47979L9.30417 10.1306L8.64501 9.46952C8.46223 9.28868 8.16667 9.28868 7.98584 9.46952C7.80306 9.6523 7.80306 9.94785 7.98584 10.1306ZM0 12.6001C0 12.9715 0.147778 13.3273 0.410278 13.5898C0.672778 13.8523 1.02861 14.0001 1.4 14.0001H5.62723C5.88584 14.0001 6.09389 13.7901 6.09389 13.5334C6.09389 13.2767 5.88584 13.0667 5.62723 13.0667H1.4C1.27556 13.0667 1.15695 13.0181 1.06945 12.9306L1.0675 12.9287C0.981945 12.8412 0.933334 12.7226 0.933334 12.6001C0.933334 10.4709 2.51417 8.71313 4.5675 8.43702C4.82223 8.40396 5.00111 8.16868 4.96611 7.91396C4.93306 7.65729 4.69778 7.47841 4.44306 7.51341C1.93472 7.8498 0 9.99841 0 12.6001Z" fill="white"/>
</svg>
